<?xml version="1.0" encoding="UTF-8"?>
<!DOCTYPE svg PUBLIC "-//W3C//DTD SVG 1.1//EN" "http://www.w3.org/Graphics/SVG/1.1/DTD/svg11.dtd">
<!-- Creator: CorelDRAW 2017 -->
<svg xmlns="http://www.w3.org/2000/svg" xml:space="preserve" width="8mm" height="8mm" version="1.1" style="shape-rendering:geometricPrecision; text-rendering:geometricPrecision; image-rendering:optimizeQuality; fill-rule:evenodd; clip-rule:evenodd"
viewBox="0 0 800 800"
 xmlns:xlink="http://www.w3.org/1999/xlink">
 <defs>
  <style type="text/css">
   <![CDATA[
    .str0 {stroke:#3470BF;stroke-width:30;stroke-miterlimit:22.9256}
    .fil0 {fill:none}
    .fil1 {fill:#3470BF;fill-opacity:0.972549}
   ]]>
  </style>
 </defs>
 <g id="Слой_x0020_1">
  <metadata id="CorelCorpID_0Corel-Layer"/>
  <path class="fil0 str0" d="M400 16.36c211.88,0 383.64,171.76 383.64,383.64 0,211.88 -171.76,383.64 -383.64,383.64 -211.88,0 -383.64,-171.76 -383.64,-383.64 0,-211.88 171.76,-383.64 383.64,-383.64z"/>
  <g id="_2673128884240">
   <g>
    <path class="fil1" d="M407.81 150c43.3,0 86.59,0 129.89,0 3.62,2.49 6.39,5.75 8.3,9.77 0.65,34.83 0.65,69.66 0,104.49 -1.89,4.81 -5.3,7.9 -10.26,9.28 -27.66,0.48 -55.33,0.65 -83.01,0.48 0,21.16 0,42.32 0,63.48 27.35,-0.16 54.69,0 82.04,0.49 7.78,2.06 11.68,7.1 11.71,15.13 -5.81,34.46 -12.81,68.64 -20.99,102.54 -2.43,3.74 -5.85,5.86 -10.26,6.35 -20.83,0.49 -41.66,0.65 -62.5,0.49 0.17,58.92 0,117.84 -0.48,176.76 -1.57,4.97 -4.66,8.55 -9.28,10.74 -34.83,0 -69.66,0 -104.49,0 -4.21,-2.1 -7.31,-5.35 -9.28,-9.77 -0.49,-59.24 -0.65,-118.48 -0.49,-177.73 -21.16,0.16 -42.32,0 -63.48,-0.49 -5.52,-0.97 -9.27,-4.06 -11.23,-9.28 -0.65,-35.15 -0.65,-70.31 0,-105.46 1.96,-5.22 5.71,-8.31 11.23,-9.28 21.16,-0.49 42.32,-0.65 63.48,-0.49 -0.16,-35.81 0,-71.62 0.49,-107.42 6.03,-34.68 25.07,-59.26 57.13,-73.73 7.13,-2.66 14.3,-4.77 21.48,-6.35zm13.67 29.3c31.58,0 63.16,0 94.73,0 0,21.48 0,42.97 0,64.45 -27.67,-0.16 -55.34,0 -83.01,0.49 -5.34,1.44 -8.76,4.86 -10.25,10.25 -0.65,34.18 -0.65,68.36 0,102.54 1.46,5.37 4.88,8.79 10.25,10.26 26.69,0.48 53.39,0.65 80.08,0.48 -4.23,21.49 -8.46,42.97 -12.69,64.46 -22.47,-0.17 -44.93,0 -67.39,0.49 -4.24,0.98 -7.33,3.42 -9.27,7.32 -1.46,60.16 -1.95,120.38 -1.47,180.66 -21.16,0 -42.32,0 -63.48,0 0.48,-59.94 -0.01,-119.83 -1.46,-179.68 -2,-4.01 -5.09,-6.78 -9.28,-8.3 -21.81,-0.49 -43.62,-0.66 -65.43,-0.49 0,-21.49 0,-42.97 0,-64.46 21.81,0.17 43.62,0 65.43,-0.48 5.82,-2.03 9.24,-6.09 10.26,-12.21 0.32,-40.69 0.65,-81.38 0.97,-122.07 7.92,-32.84 28.6,-50.74 62.01,-53.71z"/>
   </g>
  </g>
 </g>
</svg>
