<?xml version="1.0" encoding="UTF-8"?>
<!DOCTYPE svg PUBLIC "-//W3C//DTD SVG 1.1//EN" "http://www.w3.org/Graphics/SVG/1.1/DTD/svg11.dtd">
<!-- Creator: CorelDRAW 2017 -->
<svg xmlns="http://www.w3.org/2000/svg" xml:space="preserve" width="8mm" height="8mm" version="1.1" style="shape-rendering:geometricPrecision; text-rendering:geometricPrecision; image-rendering:optimizeQuality; fill-rule:evenodd; clip-rule:evenodd"
viewBox="0 0 800 800"
 xmlns:xlink="http://www.w3.org/1999/xlink">
 <defs>
  <style type="text/css">
   <![CDATA[
    .str0 {stroke:#3470BF;stroke-width:30;stroke-miterlimit:22.9256}
    .fil0 {fill:none}
    .fil1 {fill:#3470BF;fill-opacity:0.960784}
    .fil2 {fill:#3470BF;fill-opacity:0.968627}
    .fil3 {fill:#3470BF;fill-opacity:0.980392}
   ]]>
  </style>
 </defs>
 <g id="Слой_x0020_1">
  <metadata id="CorelCorpID_0Corel-Layer"/>
  <path class="fil0 str0" d="M400 16.36c211.88,0 383.64,171.76 383.64,383.64 0,211.88 -171.76,383.64 -383.64,383.64 -211.88,0 -383.64,-171.76 -383.64,-383.64 0,-211.88 171.76,-383.64 383.64,-383.64z"/>
  <g id="_2673128913104">
   <g>
    <path class="fil1" d="M208.68 150c7.49,0 14.97,0 22.46,0 34.48,9.6 51.25,32.39 50.29,68.36 -6.33,34.49 -27,53.05 -62.01,55.66 -27.52,-1.62 -46.89,-14.97 -58.1,-40.04 -9.26,-31.48 -0.63,-56.71 25.88,-75.68 6.94,-3.66 14.1,-6.43 21.48,-8.3zm3.91 30.27c20.83,-2.04 33.68,7.07 38.57,27.35 -0.89,26.28 -14.4,37.83 -40.53,34.66 -21.59,-9.76 -27.61,-25.55 -18.06,-47.36 5.1,-7.17 11.77,-12.05 20.02,-14.65z"/>
   </g>
   <g>
    <path class="fil2" d="M633.49 650c-35.16,0 -70.32,0 -105.47,0 -4.63,-2.19 -7.72,-5.77 -9.28,-10.74 -0.33,-60.87 -0.65,-121.75 -0.98,-182.62 -4.74,-20.91 -17.77,-31.98 -39.06,-33.2 -20.52,0.98 -33.54,11.4 -39.06,31.25 -0.33,60.87 -0.65,121.74 -0.98,182.61 -1.21,5.72 -4.31,9.96 -9.28,12.7 -35.15,0 -70.31,0 -105.46,0 -5.06,-2.3 -8.15,-6.2 -9.28,-11.72 -0.65,-106.77 -0.65,-213.54 0,-320.31 1.79,-5.7 5.53,-9.44 11.23,-11.23 33.85,-0.65 67.71,-0.65 101.56,0 6.04,1.97 9.95,6.04 11.72,12.21 58.53,-25.35 111.92,-17.37 160.16,23.92 24.16,23.76 38.32,52.57 42.48,86.43 0.65,70.31 0.65,140.62 0,210.93 -1.91,4.02 -4.68,7.28 -8.3,9.77zm-141.61 -315.43c51.82,-1.37 89.09,21.1 111.82,67.38 3.82,9.43 6.43,19.2 7.81,29.3 0.49,63.15 0.65,126.3 0.49,189.45 -21.16,0 -42.32,0 -63.48,0 0.17,-55.66 0,-111.33 -0.48,-166.99 -7.73,-38.16 -31,-58.34 -69.83,-60.55 -35.02,1.66 -57.64,19.24 -67.87,52.74 -1.45,58.23 -1.93,116.5 -1.46,174.8 -21.49,0 -42.97,0 -64.46,0 0,-94.72 0,-189.45 0,-284.18 21.49,0 42.97,0 64.46,0 -0.17,5.22 0,10.43 0.48,15.63 5.18,9.98 12.82,12.42 22.95,7.32 17.63,-13.74 37.49,-22.04 59.57,-24.9z"/>
   </g>
   <g>
    <path class="fil3" d="M272.16 650c-35.16,0 -70.31,0 -105.47,0 -3.89,-1.77 -6.65,-4.7 -8.3,-8.79 -0.65,-108.4 -0.65,-216.8 0,-325.19 1.88,-4.82 5.3,-7.91 10.25,-9.28 33.86,-0.65 67.71,-0.65 101.56,0 5.7,1.79 9.44,5.53 11.23,11.23 0.66,107.1 0.66,214.19 0,321.29 -1.56,4.97 -4.65,8.55 -9.27,10.74zm-84.96 -313.48c21.48,0 42.97,0 64.45,0 0,94.73 0,189.46 0,284.18 -21.48,0 -42.97,0 -64.45,0 0,-94.72 0,-189.45 0,-284.18z"/>
   </g>
  </g>
 </g>
</svg>
