<!-- Generated by IcoMoon.io -->
<svg version="1.1" xmlns="http://www.w3.org/2000/svg" width="53" height="32" viewBox="0 0 53 32">
<path fill="#fff" d="M16.692 16.657h-0.924l-0.755-1.082v1.082h-0.754v-2.989h1.080c0.411 0 0.653 0.143 0.783 0.262 0.101 0.095 0.27 0.31 0.27 0.677 0 0.26-0.079 0.464-0.242 0.62-0.105 0.099-0.242 0.178-0.383 0.218l0.928 1.21-0.002 0.002zM15.013 14.996h0.125c0.125 0 0.282-0.013 0.389-0.117 0.039-0.037 0.103-0.121 0.103-0.262 0-0.117-0.042-0.209-0.127-0.273-0.075-0.055-0.2-0.086-0.361-0.086h-0.128v0.739zM17.705 16.722c-0.328 0-0.565-0.095-0.77-0.308-0.2-0.207-0.301-0.462-0.301-0.755 0-0.317 0.116-0.614 0.319-0.812 0.182-0.178 0.436-0.277 0.717-0.277 0.176 0 0.414 0.042 0.594 0.229v-0.163h0.71v2.021l-0.71 0v-0.172c-0.137 0.158-0.324 0.238-0.557 0.238h-0.002zM17.829 15.178c-0.123 0-0.247 0.050-0.33 0.13-0.062 0.062-0.137 0.169-0.137 0.332s0.068 0.268 0.125 0.328c0.088 0.090 0.22 0.143 0.358 0.143 0.117 0 0.231-0.046 0.314-0.127 0.068-0.062 0.147-0.172 0.147-0.345 0-0.132-0.049-0.255-0.137-0.336-0.082-0.077-0.215-0.127-0.336-0.127h-0.002zM20.277 16.722c-0.295 0-0.519-0.088-0.708-0.277-0.207-0.204-0.323-0.491-0.323-0.807s0.116-0.6 0.323-0.796c0.189-0.176 0.442-0.271 0.715-0.271 0.24 0 0.446 0.081 0.59 0.229v-1.405h0.71v3.26h-0.71v-0.176c-0.145 0.161-0.346 0.242-0.598 0.242h0zM20.442 15.178c-0.132 0-0.231 0.039-0.323 0.123-0.066 0.062-0.147 0.174-0.147 0.348 0 0.127 0.053 0.249 0.147 0.336 0.086 0.081 0.2 0.126 0.314 0.126 0.123 0 0.255-0.051 0.345-0.136 0.051-0.048 0.138-0.152 0.138-0.326 0-0.134-0.044-0.244-0.134-0.337-0.090-0.092-0.198-0.134-0.339-0.134zM22.765 16.656h-0.71v-2.021h0.71v2.021zM22.412 14.235c-0.229 0-0.409-0.176-0.409-0.4s0.18-0.4 0.409-0.4 0.409 0.176 0.409 0.4c0 0.224-0.18 0.4-0.409 0.4zM24.291 16.722c-0.361 0-0.691-0.119-0.904-0.325-0.196-0.189-0.312-0.471-0.312-0.75s0.117-0.561 0.312-0.75c0.213-0.207 0.543-0.325 0.904-0.325s0.691 0.119 0.904 0.325c0.196 0.191 0.312 0.471 0.312 0.75s-0.117 0.561-0.312 0.752c-0.213 0.207-0.543 0.325-0.904 0.325v-0.002zM24.291 15.17c-0.137 0-0.253 0.044-0.343 0.132-0.094 0.092-0.139 0.204-0.139 0.345s0.046 0.255 0.139 0.345c0.090 0.086 0.207 0.13 0.348 0.13s0.249-0.044 0.339-0.132c0.094-0.092 0.139-0.204 0.139-0.345s-0.046-0.255-0.139-0.345c-0.090-0.086-0.205-0.13-0.343-0.13h-0.002zM26.578 16.656h-0.754v-2.989h1.72v0.635h-0.966v0.5h0.895v0.635l-0.895-0v1.219zM36.081 16.656h-1.702v-2.989h1.702v0.635h-0.968v0.5h0.921v0.635l-0.921-0v0.585h0.968v0.634zM37.468 16.722c-0.38 0-0.657-0.086-0.844-0.262-0.205-0.193-0.233-0.407-0.233-0.611v-1.212h0.722v1.111c0 0.094 0.011 0.211 0.103 0.292 0.066 0.057 0.148 0.084 0.253 0.084s0.196-0.031 0.257-0.084c0.088-0.081 0.099-0.205 0.099-0.292v-1.111h0.722v1.172c0 0.216-0.018 0.444-0.238 0.651-0.185 0.174-0.468 0.262-0.838 0.262h-0.004zM41.797 16.722c-0.361 0-0.691-0.119-0.904-0.325-0.196-0.191-0.312-0.471-0.312-0.75s0.117-0.561 0.312-0.75c0.213-0.207 0.543-0.325 0.904-0.325s0.691 0.119 0.904 0.325c0.196 0.191 0.312 0.471 0.312 0.75s-0.117 0.561-0.312 0.752c-0.213 0.207-0.543 0.325-0.904 0.325v-0.002zM41.797 15.17c-0.138 0-0.253 0.044-0.343 0.132-0.093 0.092-0.139 0.204-0.139 0.345s0.046 0.255 0.139 0.345c0.090 0.086 0.207 0.13 0.348 0.13s0.249-0.044 0.339-0.132c0.094-0.092 0.139-0.204 0.139-0.345s-0.046-0.255-0.139-0.345c-0.090-0.086-0.205-0.13-0.343-0.13h-0.002zM43.99 17.66h-0.71v-3.024h0.71v0.178c0.154-0.161 0.352-0.244 0.59-0.244 0.286 0 0.539 0.099 0.73 0.286 0.2 0.196 0.31 0.475 0.31 0.787s-0.11 0.594-0.328 0.807c-0.193 0.189-0.407 0.273-0.699 0.273-0.257 0-0.458-0.077-0.603-0.233v1.17zM44.422 15.18c-0.163 0-0.271 0.073-0.335 0.136-0.088 0.086-0.143 0.214-0.143 0.337s0.050 0.237 0.134 0.325c0.090 0.088 0.216 0.139 0.343 0.139 0.117 0 0.237-0.048 0.323-0.127 0.090-0.082 0.147-0.22 0.147-0.348s-0.051-0.247-0.141-0.332c-0.088-0.083-0.204-0.127-0.326-0.127v-0.004zM16.692 21.278h-0.924l-0.755-1.082v1.082h-0.754v-2.989h1.080c0.411 0 0.653 0.143 0.783 0.262 0.101 0.095 0.27 0.31 0.27 0.677 0 0.26-0.079 0.464-0.242 0.62-0.105 0.099-0.242 0.178-0.383 0.218l0.928 1.21-0.002 0.002zM15.013 19.617h0.125c0.125 0 0.282-0.013 0.389-0.117 0.039-0.037 0.103-0.121 0.103-0.262 0-0.117-0.042-0.209-0.127-0.273-0.075-0.055-0.2-0.086-0.361-0.086h-0.128v0.739zM17.705 21.342c-0.328 0-0.565-0.095-0.77-0.308-0.2-0.207-0.301-0.462-0.301-0.755 0-0.317 0.116-0.614 0.319-0.812 0.182-0.178 0.436-0.277 0.717-0.277 0.176 0 0.414 0.042 0.594 0.229v-0.163h0.71v2.021l-0.71 0v-0.172c-0.137 0.158-0.324 0.238-0.557 0.238h-0.002zM17.829 19.798c-0.123 0-0.247 0.049-0.33 0.13-0.062 0.062-0.137 0.169-0.137 0.332s0.068 0.268 0.125 0.328c0.088 0.090 0.22 0.143 0.358 0.143 0.117 0 0.231-0.046 0.314-0.127 0.068-0.062 0.147-0.172 0.147-0.345 0-0.132-0.049-0.255-0.137-0.336-0.082-0.077-0.215-0.127-0.336-0.127h-0.002zM20.277 21.342c-0.295 0-0.519-0.088-0.708-0.277-0.207-0.204-0.323-0.491-0.323-0.807s0.116-0.6 0.323-0.796c0.189-0.176 0.442-0.271 0.715-0.271 0.24 0 0.446 0.081 0.59 0.229v-1.405h0.71v3.26l-0.71 0v-0.176c-0.145 0.161-0.346 0.242-0.598 0.242h0zM20.442 19.798c-0.132 0-0.231 0.038-0.323 0.123-0.066 0.062-0.147 0.174-0.147 0.348 0 0.127 0.053 0.249 0.147 0.336 0.086 0.081 0.2 0.127 0.314 0.127 0.123 0 0.255-0.051 0.345-0.136 0.051-0.048 0.138-0.152 0.138-0.326 0-0.134-0.044-0.244-0.134-0.337-0.090-0.092-0.198-0.134-0.339-0.134zM22.756 21.276h-0.71v-2.021h0.71v2.021zM22.402 18.856c-0.229 0-0.409-0.176-0.409-0.4s0.18-0.4 0.409-0.4 0.409 0.176 0.409 0.4c0 0.224-0.18 0.4-0.409 0.4zM24.282 21.342c-0.361 0-0.691-0.119-0.904-0.325-0.196-0.189-0.312-0.471-0.312-0.75s0.117-0.561 0.312-0.75c0.213-0.207 0.543-0.325 0.904-0.325s0.691 0.119 0.904 0.325c0.196 0.191 0.312 0.471 0.312 0.75s-0.117 0.561-0.312 0.752c-0.213 0.207-0.543 0.325-0.904 0.325v-0.002zM24.282 19.791c-0.137 0-0.253 0.044-0.343 0.132-0.094 0.092-0.139 0.204-0.139 0.345s0.046 0.255 0.139 0.345c0.090 0.086 0.207 0.13 0.348 0.13s0.249-0.044 0.339-0.132c0.094-0.092 0.139-0.204 0.139-0.345s-0.046-0.255-0.139-0.345c-0.090-0.086-0.205-0.13-0.343-0.13h-0.002zM27.515 21.276h-1.696v-2.989h0.761v2.354h0.935v0.634zM28.499 21.276h-0.71v-2.021h0.71v2.021zM28.145 18.856c-0.229 0-0.409-0.176-0.409-0.4s0.18-0.4 0.409-0.4 0.409 0.176 0.409 0.4c0 0.224-0.18 0.4-0.409 0.4zM30.263 21.342c-0.255 0-0.458-0.081-0.605-0.244v0.178h-0.715v-3.26h0.715v1.405c0.145-0.148 0.354-0.231 0.596-0.231 0.275 0 0.532 0.097 0.722 0.271 0.211 0.194 0.326 0.477 0.326 0.796s-0.116 0.603-0.326 0.809c-0.189 0.189-0.416 0.277-0.713 0.277zM30.096 19.798c-0.143 0-0.251 0.042-0.343 0.136s-0.136 0.204-0.136 0.337c0 0.174 0.086 0.279 0.139 0.326 0.090 0.084 0.224 0.136 0.348 0.136 0.114 0 0.229-0.046 0.317-0.127 0.094-0.086 0.148-0.209 0.148-0.335 0-0.176-0.081-0.286-0.148-0.348-0.092-0.084-0.193-0.123-0.326-0.123v-0.002zM36.674 21.276h-0.715v-1.447h-0.226v-0.574h0.226v-0.631h0.715v0.631h0.402v0.574h-0.402v1.447zM38.265 22.281h-0.814l0.735-1.285-0.99-1.738h0.833l0.556 1.025 0.543-1.025h0.814l-1.674 3.024h-0.002zM30.564 16.712c-0.259 0-0.559-0.035-0.82-0.29-0.2-0.196-0.31-0.471-0.31-0.777s0.114-0.594 0.314-0.794c0.196-0.193 0.462-0.29 0.788-0.29 0.35 0 0.618 0.099 0.816 0.304 0.196 0.204 0.292 0.469 0.292 0.816v0.097l-1.489-0c0.007 0.088 0.042 0.205 0.11 0.279 0.072 0.075 0.171 0.112 0.308 0.112 0.097 0 0.187-0.018 0.244-0.053 0.002 0 0.075-0.042 0.127-0.148l0.009-0.020 0.684-0c0 0-0.026 0.106-0.026 0.106-0.090 0.275-0.266 0.429-0.398 0.508-0.172 0.103-0.378 0.148-0.647 0.148l-0.002 0.002zM30.184 15.337h0.787c-0.017-0.048-0.049-0.117-0.108-0.172-0.071-0.066-0.169-0.101-0.282-0.101-0.123 0-0.224 0.039-0.304 0.117-0.044 0.046-0.075 0.099-0.093 0.156h0.002zM32.992 16.712c-0.259 0-0.559-0.035-0.82-0.29-0.2-0.196-0.31-0.471-0.31-0.777s0.114-0.594 0.314-0.794c0.196-0.193 0.462-0.29 0.788-0.29 0.35 0 0.618 0.099 0.816 0.304 0.196 0.204 0.292 0.469 0.292 0.816v0.097l-1.489-0c0.007 0.088 0.042 0.205 0.11 0.279 0.071 0.075 0.17 0.112 0.308 0.112 0.097 0 0.187-0.018 0.244-0.053 0.002 0 0.075-0.042 0.127-0.148l0.009-0.020 0.684-0c0 0-0.026 0.106-0.026 0.106-0.090 0.275-0.266 0.429-0.398 0.508-0.172 0.103-0.378 0.148-0.647 0.148l-0.002 0.002zM32.612 15.337h0.787c-0.017-0.048-0.050-0.117-0.108-0.172-0.072-0.066-0.169-0.101-0.282-0.101-0.123 0-0.224 0.039-0.304 0.117-0.044 0.046-0.075 0.099-0.093 0.156h0.002zM46.92 16.712c-0.259 0-0.559-0.035-0.82-0.29-0.2-0.196-0.31-0.471-0.31-0.777s0.114-0.594 0.314-0.794c0.196-0.193 0.462-0.29 0.788-0.29 0.35 0 0.618 0.099 0.816 0.304 0.196 0.204 0.292 0.469 0.292 0.816v0.097l-1.489-0c0.007 0.088 0.042 0.205 0.11 0.279 0.071 0.075 0.17 0.112 0.308 0.112 0.097 0 0.187-0.018 0.244-0.053 0.002 0 0.075-0.042 0.127-0.148l0.009-0.020 0.684-0c0 0-0.026 0.106-0.026 0.106-0.090 0.275-0.266 0.429-0.398 0.508-0.172 0.103-0.378 0.148-0.647 0.148l-0.002 0.002zM46.54 15.337h0.787c-0.016-0.048-0.050-0.117-0.108-0.172-0.072-0.066-0.169-0.101-0.282-0.101-0.123 0-0.224 0.039-0.304 0.117-0.044 0.046-0.075 0.099-0.094 0.156h0.002zM32.608 21.339c-0.259 0-0.559-0.035-0.82-0.29-0.2-0.196-0.31-0.471-0.31-0.777s0.114-0.594 0.314-0.794c0.196-0.193 0.462-0.29 0.788-0.29 0.35 0 0.618 0.099 0.816 0.304 0.196 0.204 0.292 0.469 0.292 0.816v0.097l-1.489-0c0.007 0.088 0.042 0.205 0.11 0.279 0.071 0.075 0.17 0.112 0.308 0.112 0.097 0 0.187-0.018 0.244-0.053 0.002 0 0.075-0.042 0.127-0.149l0.009-0.020h0.684c0 0-0.026 0.106-0.026 0.106-0.090 0.275-0.266 0.429-0.398 0.508-0.172 0.103-0.378 0.148-0.647 0.148l-0.002 0.002zM32.229 19.963h0.787c-0.016-0.048-0.050-0.117-0.108-0.172-0.071-0.066-0.169-0.101-0.282-0.101-0.123 0-0.224 0.038-0.304 0.117-0.044 0.046-0.075 0.099-0.094 0.156h0.002zM39.65 16.656h-0.71v-2.021h0.71v0.227c0.057-0.077 0.127-0.143 0.202-0.187 0.101-0.062 0.209-0.088 0.361-0.088 0.082 0 0.211 0.040 0.211 0.040v0.667c0 0-0.068-0.084-0.326-0.090-0.121-0.002-0.22 0.040-0.299 0.121-0.13 0.136-0.147 0.321-0.147 0.504v0.825h-0.002zM28.51 16.656h-0.71v-2.021h0.71v0.227c0.057-0.077 0.127-0.143 0.202-0.187 0.101-0.062 0.209-0.088 0.361-0.088 0.082 0 0.211 0.040 0.211 0.040v0.667c0 0-0.068-0.084-0.326-0.090-0.121-0.002-0.22 0.040-0.299 0.121-0.13 0.136-0.147 0.321-0.147 0.504v0.825h-0.002zM34.691 21.256h-0.71v-2.021h0.71v0.227c0.057-0.077 0.127-0.143 0.202-0.187 0.101-0.062 0.209-0.088 0.361-0.088 0.082 0 0.211 0.040 0.211 0.040v0.667c0 0-0.068-0.084-0.326-0.090-0.121-0.002-0.22 0.040-0.299 0.121-0.13 0.136-0.147 0.321-0.147 0.504v0.825l-0.002-0z"></path>
<path fill="#fff" d="M13.568 13.487c-1.087 0.127-1.392 1.256-2.211 2.231-1.093 1.302-2.716 0.633-2.716 0.633 1.093-0.136 1.408-1.274 2.246-2.244 1.111-1.287 2.681-0.62 2.681-0.62h0zM9.626 15.398c0 0 1.361-1.082 0.774-2.675-0.442-1.203-1.295-2.054-0.844-3.057 0 0-1.348 1.097-0.787 2.675 0.429 1.207 1.307 2.054 0.854 3.057h0.002zM9.547 15.168c0 0 0.13-1.753-1.375-2.419-1.175-0.521-2.409-0.471-2.833-1.487 0 0-0.169 1.742 1.43 2.417 1.183 0.499 2.356 0.473 2.778 1.489zM7.755 18.111h3.057l0.713-1.439-3.77-0v1.439zM8.243 22.334h0.257l1.753-4.030h-2.011v4.030h0.002z"></path>
</svg>
