<!-- Generated by IcoMoon.io -->
<svg version="1.1" xmlns="http://www.w3.org/2000/svg" width="53" height="32" viewBox="0 0 53 32">
<path fill="#fff" d="M21.982 5.243c-0.224 0.905 0.836 0.469 1.332 0.848 0.444 0.339 0.111 1.251-0.035 1.736-0.348 1.152-0.671 2.292-1.014 3.437-0.348 1.164-0.684 2.305-1.032 3.477-0.331 1.115-0.641 2.348-1.019 3.432-0.203 0.582-0.472 1.122-0.989 1.297-0.392 0.133-1.795-0.045-1.495 0.662 0.159 0.375 1.562 0.182 1.976 0.156 0.752-0.047 1.406-0.080 2.166-0.044 0.71 0.033 3.186 0.45 2.647-0.487-0.127-0.22-0.616-0.197-0.881-0.233-0.829-0.112-0.996-0.436-0.77-1.253l1.031-3.48c0.553-1.879 0.39-2.079 1.257-2.069 0.328 0.004 0.647 0.062 0.917 0.185 1.834 0.838 2.034 6.31 3.899 7.284 0.656 0.343 1.283 0.092 2.029 0.117 0.313 0.011 0.797 0.052 1.091 0.003 0.412-0.069 0.485-0.474 0.251-0.652-0.188-0.143-0.571-0.007-0.905-0.207-0.539-0.323-0.993-1.567-1.208-2.131-0.413-1.084-0.799-2.199-1.315-3.191-0.855-1.643-1.85-1.566-2.506-1.826l-0.069-0.039c0.187-0.114 0.576-0.223 0.813-0.34 0.745-0.369 1.38-0.895 1.863-1.59 0.695-0.999 2.040-4.445 3.056-3.592 0.387 0.324 0.291 1.006 1.158 1.125 1.606 0.221 2.155-1.668 1.328-2.554-0.849-0.909-2.634-0.38-3.45 0.266-1.467 1.16-2.442 3.956-3.859 5.271-0.393 0.364-0.746 0.689-1.377 0.905-0.542 0.185-1.477 0.3-1.997 0.075-0.073-0.373 1.107-4.184 1.366-4.881 0.561-1.512 1.393-0.827 1.986-1.185 0.245-0.148 0.259-0.561-0.121-0.637-0.392-0.079-1.605 0.039-2.058 0.061-0.714 0.033-1.399 0.027-2.111-0.015-0.567-0.034-1.519-0.177-1.955 0.073z"></path>
<path fill="#fff" d="M34.408 24.89c0.28-0.053 0.109-0.232 0.484-0.334-0.034 0.344-0.165 0.683-0.266 1.017-0.151 0.496-0.357 0.673 0.231 0.617 0.172-0.543 0.521-1.352 0.881-1.61 0.254 0.123-0.092 0.049 0.35 0.244l0.143 0.076c0.13-0.157 0.232-0.296 0.445-0.351-0.101 0.555-0.597 1.148-0.445 1.686 0.608 0.185 1.152-0.523 1.38-0.831l-0.155 0.61c0.017 0.72 0.896-0.144 0.986-0.401-0.344 0.050-0.1 0.245-0.522 0.376-0.052-0.359 0.379-1.193 0.446-1.649-0.833 0.001-0.22 0.582-1.322 1.483-0.938 0.767 0.162-1.079 0.030-1.483-0.301-0.189-0.633 0.115-0.74 0.271l-0.058-0.104c-0.005-0.009-0.013-0.026-0.018-0.036-0.045-0.089-0.033-0.087-0.091-0.173-0.627-0.108-1.016 0.885-1.020 0.904 0.018-0.27 0.326-0.873-0.031-0.924-0.284-0.040-0.645 0.412-0.71 0.611z"></path>
<path fill="#fff" d="M16.147 24.772c-0.016-0.239 0.076-0.455 0.144-0.669 0.093-0.292 0.086-0.228 0.31-0.361 0.096-0.057 0.034 0.001 0.095-0.069-0.179-0.105-0.895-0.093-1.074 0 0.127 0.147 0.073 0.044 0.235 0.167 0 0.317-0.247 0.977-0.347 1.319-0.055 0.189-0.111 0.449-0.187 0.648-0.15 0.394-0.269 0.083-0.433 0.393l1.172 0.005c-0.143-0.258-0.048-0.053-0.285-0.219-0.010-0.236 0.181-0.86 0.306-1.045 0.837-0.039 0.264 1.672 1.482 1.219-0.15-0.272-0.131 0.176-0.452-0.678-0.145-0.386-0.199-0.476-0.515-0.654 0.747-0.496 0.395-0.666 0.821-0.921 0.281 0.085-0.009 0.195 0.332 0.187 0.146-0.004 0.247-0.121 0.223-0.299-0.047-0.352-0.51-0.233-0.699-0.041-0.383 0.388-0.406 1.015-1.13 1.020z"></path>
<path fill="#fff" d="M27.914 24.459c0.103-0.084 0.876-0.226 0.718 0.577-0.075 0.383-0.278 0.757-0.494 0.95-0.364 0.325-0.886 0.266-0.633-0.465l0.325-0.959c0.072-0.123-0.030-0.010 0.084-0.103zM28.007 23.885l-0.39 0.023c-0.345 0.801-0.113 0.242-0.601 0.612 0.143 0.11 0.157 0.050 0.369 0.007-0.106 0.474-0.301 1.007-0.458 1.474-0.534 1.594-0.286 0.711-0.707 1.12 0.11 0.071 1.111 0.062 1.237 0-0.135-0.142-0.175-0.078-0.345-0.163-0.021-0.302 0.095-0.525 0.192-0.807 0.355 0.075 0.492 0.268 1.011 0.012 0.27-0.133 0.491-0.394 0.624-0.656 0.135-0.264 0.24-0.713 0.051-0.994-0.192-0.286-0.667-0.257-1.080-0.223l0.097-0.405z"></path>
<path fill="#fff" d="M25.785 24.501c0.696-0.292 0.242 0.534 0.123 0.705-0.147 0.211-0.478 0.621-0.669 0.728-0.729 0.407-0.246-1.1 0.546-1.432zM26.24 25.934c0.054-0.583 0.427-1.169 0.467-1.649-0.305-0.028-0.179-0.014-0.382 0.055-0.082 0.028-0.033 0.035-0.149 0.032-0.012-0-0.145-0.028-0.189-0.032-0.647-0.073-1.267 0.547-1.472 1.090-0.395 1.050 0.631 1.209 1.451-0.076-0.086 0.348-0.213 0.526-0.163 0.904 0.41 0.075 0.852-0.371 0.925-0.695-0.34 0.159-0.058 0.24-0.487 0.372z"></path>
<path fill="#fff" d="M19.041 24.494c0.449-0.168 0.501 0.165 0.124 0.702-1.411 2.009-1.255-0.279-0.124-0.702zM19.503 25.93c-0.025-0.407 0.398-1.155 0.452-1.659-0.828 0.001 0.135 0.136-0.755 0.063-1.389-0.115-2.109 2.461-0.862 1.874 0.417-0.196 0.571-0.492 0.855-0.809-0.034 0.16-0.082 0.28-0.118 0.433-0.217 0.917 0.817 0.228 0.904-0.27-0.293 0.146-0.165 0.288-0.476 0.369z"></path>
<path fill="#fff" d="M22.018 24.918c0.18-0.026 0.243-0.318 0.498-0.331 0.017 0.458-0.407 1.112-0.428 1.59 0.553 0.157 0.338-0.187 0.745-0.82 0.21-0.327 0.5-0.788 0.955-0.811-0.003 0.584-0.556 1.136-0.431 1.704 0.424 0.092 0.9-0.321 0.97-0.639-0.293 0.125-0.203 0.331-0.546 0.382 0.018-0.564 0.691-1.197 0.362-1.694-0.679-0.119-1.045 0.515-1.315 0.832 0.070-0.265 0.184-0.579 0.080-0.825-0.411-0.098-0.87 0.371-0.891 0.613z"></path>
<path fill="#fff" d="M32.074 25.353c1.004-0.288 0.828 0.465 0.651 0.659-0.129 0.141-0.421 0.226-0.587 0.087-0.189-0.158-0.097-0.517-0.064-0.746zM32.13 25.203c0.107-0.497 0.35-0.876 0.9-0.778 0.117 0.554-0.346 0.732-0.9 0.778zM32.881 25.175c0.355-0.245 0.715-0.197 0.567-0.786-0.994-0.465-2.113 0.538-1.826 1.494 0.139 0.464 0.812 0.505 1.26 0.286 0.434-0.212 0.694-0.821-0.001-0.993z"></path>
<path fill="#fff" d="M30.366 24.459c0.959-0.414 0.562 1.365-0.011 1.638-0.563 0.268-0.682-0.328-0.588-0.763 0.104-0.482 0.255-0.726 0.599-0.875zM31.35 25.398c0.4-1.359-1.642-1.541-2.019-0.221-0.388 1.358 1.645 1.491 2.019 0.221z"></path>
<path fill="#fff" d="M21.788 25.645c-0.090-0.004-1.111 0.903-1.194-0.028-0.048-0.539 0.316-1.15 0.78-1.207 0.1 0.077 0.3 0.463 0.527 0.236 0.416-0.416-1-0.689-1.6 0.352-0.661 1.146 0.745 1.877 1.487 0.646z"></path>
<path fill="#fff" d="M33.969 26.246c0.006-0.101 0.234-0.467-0.128-0.474-0.288-0.006-0.29 0.271-0.234 0.487l0.362-0.013z"></path>
</svg>
