<!-- Generated by IcoMoon.io -->
<svg version="1.1" xmlns="http://www.w3.org/2000/svg" width="53" height="32" viewBox="0 0 53 32">
<path fill="#fff" d="M11.023 15.452v4.141l1.899 0.604v-4.745h1.222v4.141l1.888 0.604 1.233-1.679h-1.222v-4.085l-1.888-0.66-1.233 1.455v-0.795l-1.888-0.66-1.233 1.455v-0.795l-1.888-0.66-1.233 1.679h1.222v4.141l1.899 0.604v-4.745h1.222zM31.415 18.518v-4.141l-1.899-0.604v5.764l1.888 0.66 1.233-1.455v0.795l1.888 0.66 1.233-1.679h-1.222v-4.141l-1.899-0.604v4.745h-1.222zM45.431 14.601l-1.855-0.828-2.199 1.052 2.199 0.828-3.021 1.466v2.395l1.899 0.683 1.122-1.466v0.806l1.899 0.66 1.177-1.69h-1.222v-3.906zM19.72 20.197l2.177-0.873-2.177-0.817v-1.175l2.854-1.388-1.621-2.171-3.132 1.511v4.096l1.899 0.817zM40.144 18.384l-2.31-0.705 2.166-2.776-2.71-1.13-1.422 1.813 2.321 0.716-2.21 2.764 2.743 1.13 1.422-1.813zM42.455 18.518v-1.656l1.122-0.537v2.194h-1.122zM19.72 14.858l0.955 1.321-0.955 0.459v-1.78zM23.063 19.38l1.899 0.817 3.121-1.254v-4.958l-5.020-2.182v1.933l3.121 1.242v3.976l-1.222-0.448v-3.492l-1.899 0.604v3.761z"></path>
</svg>
