<!-- Generated by IcoMoon.io -->
<svg version="1.1" xmlns="http://www.w3.org/2000/svg" width="53" height="32" viewBox="0 0 53 32">
<path fill="#fff" d="M32.888 6.765c5.539-0.946 9.932 3.064 10.748 7.604 1.016 5.646-3.078 10.098-7.686 10.869-5.559 0.93-10.044-3.033-10.825-7.669-0.955-5.673 3.057-10.001 7.762-10.805zM33.141 10.918c-7.048 1.871-3.998 11.949 2.604 10.172 2.408-0.648 4.621-3.265 3.741-6.493-0.657-2.412-3.266-4.497-6.345-3.679z"></path>
<path fill="#fff" d="M16.784 16.080c-0.49 1.142-3.726 4.993-3.835 5.799l4.504-0.010 1.969-3.689c0.917 1.024 1.475 2.809 2.268 3.691l4.851-0.001c-0.534-1.243-3.15-4.275-3.916-5.79 0.981-1.8 2.908-3.787 3.641-5.479l-4.464 0.003-1.76 3.199c-0.471-0.479-1.28-2.399-1.774-3.202l-4.869 0.003c0.278 1.066 2.868 4.209 3.385 5.477z"></path>
<path fill="#fff" d="M9.588 12.745l-0.022 1.713c1.183-0.186 2.739-0.601 3.019 0.671l-2.275 0.035 0.007 1.556 2.425 0.082c-0.62 1.257-1.641 1.281-3.135 0.784-0.084 0.654-0.113 1.257 0.062 1.75 4.987 2.082 8.153-4.305 4.164-6.313-1.086-0.547-3.072-0.776-4.244-0.278z"></path>
<path fill="#fff" d="M33.8 13.536c3.345-0.805 4.359 4.171 1.25 4.921-3.446 0.831-4.315-4.183-1.25-4.921zM33.547 16.436c0.755 1.122 2.385-0.004 1.621-1.105-0.614-0.685-2.319-0.222-1.621 1.105z"></path>
</svg>
