<!-- Generated by IcoMoon.io -->
<svg version="1.1" xmlns="http://www.w3.org/2000/svg" width="53" height="32" viewBox="0 0 53 32">
<path fill="#fff" d="M14.901 25.423c-0.496 0-0.995-0.039-1.495-0.116-2.519-0.394-4.734-1.745-6.236-3.805s-2.113-4.581-1.719-7.1c0.394-2.519 1.745-4.734 3.805-6.236 4.252-3.102 10.235-2.166 13.337 2.085l-0.9 0.656c-2.74-3.756-8.025-4.582-11.78-1.842-1.819 1.327-3.013 3.284-3.361 5.509s0.191 4.452 1.519 6.272c1.327 1.819 3.284 3.013 5.509 3.361s4.452-0.191 6.272-1.519l0.656 0.9c-1.65 1.205-3.599 1.836-5.605 1.836z"></path>
<path fill="#fff" d="M18.228 21.803l4.18-0.001-1.949 3.863z"></path>
<path fill="#fff" d="M10.803 10.759h1.771v9.749h-1.771z"></path>
<path fill="#fff" d="M13.892 13.506h1.675v0.81c0 0.261-0.028 0.48-0.028 0.48h0.028c0.302-0.59 1.071-1.456 2.485-1.456 1.552 0 2.43 0.81 2.43 2.664v4.504h-1.73v-4.147c0-0.851-0.22-1.428-1.113-1.428-0.934 0-1.62 0.59-1.881 1.428-0.096 0.288-0.124 0.604-0.124 0.934v3.213l-1.744-0v-7.003h0.001z"></path>
<path fill="#fff" d="M21.637 18.421c0 0 0.769 0.769 1.908 0.769 0.494 0 0.92-0.22 0.92-0.632 0-1.044-3.405-0.906-3.405-3.158 0-1.304 1.167-2.060 2.678-2.060 1.579 0 2.348 0.796 2.348 0.796l-0.645 1.291c0 0-0.645-0.604-1.716-0.604-0.453 0-0.892 0.193-0.892 0.632 0 0.989 3.405 0.865 3.405 3.117 0 1.167-1.016 2.101-2.678 2.101-1.744 0-2.719-1.030-2.719-1.030l0.796-1.222z"></path>
<path fill="#fff" d="M26.758 10.759h1.73v1.552h-1.73v-1.552zM26.758 13.506h1.744v7.003h-1.744v-7.003z"></path>
<path fill="#fff" d="M32.236 13.341c1.538 0 2.018 0.892 2.018 0.892h0.028c0 0-0.014-0.178-0.014-0.398v-3.076h1.744v9.749h-1.648v-0.577c0-0.261 0.027-0.453 0.027-0.453h-0.027c0 0-0.59 1.194-2.197 1.194-1.895 0-3.103-1.497-3.103-3.666 0-2.224 1.318-3.665 3.171-3.665zM32.566 19.204c0.906 0 1.758-0.659 1.758-2.211 0-1.085-0.577-2.156-1.744-2.156-0.961 0-1.758 0.783-1.758 2.17 0.001 1.332 0.715 2.197 1.744 2.197z"></path>
<path fill="#fff" d="M40.118 13.341c2.018 0 3.103 1.469 3.103 3.323 0 0.206-0.041 0.673-0.041 0.673h-4.833c0.109 1.222 1.057 1.854 2.101 1.854 1.126 0 2.018-0.769 2.018-0.769l0.673 1.25c0 0-1.071 1.002-2.815 1.002-2.32 0-3.762-1.675-3.762-3.666 0.001-2.156 1.469-3.666 3.556-3.666zM41.463 16.142c-0.027-0.947-0.617-1.456-1.387-1.456-0.893 0-1.51 0.549-1.675 1.456h3.062z"></path>
<path fill="#fff" d="M43.784 13.506h1.675v1.208c0 0.261-0.028 0.494-0.028 0.494l0.028 0c0.316-1.002 1.154-1.799 2.224-1.799 0.165 0 0.316 0.028 0.316 0.028v1.716c0 0-0.178-0.027-0.412-0.027-0.742 0-1.579 0.426-1.909 1.469-0.109 0.343-0.151 0.727-0.151 1.14v2.773h-1.744v-7.003z"></path>
</svg>
