<!-- Generated by IcoMoon.io -->
<svg version="1.1" xmlns="http://www.w3.org/2000/svg" width="53" height="32" viewBox="0 0 53 32">
<path fill="#fff" d="M31.002 4.992c1.014 0.384 2.529 1.946 3.162 2.963 0.285 0.457 0.487 0.835 0.712 1.355 1.225 2.841 0.771 6.296-1.086 8.764-0.68 0.903-1.677 1.837-2.766 2.425-0.898 0.485-1.921 0.886-3.085 1.047-0.974 0.135-2.877 0.116-3.665-0.254 1.653 0.135 2.567-0.225 3.76-1.073 0.184-0.131 0.426-0.311 0.564-0.447 0.179-0.176 0.329-0.279 0.507-0.458 1.463-1.471 2.908-3.969 2.77-6.206-0.236-3.825-4.028-2.766-5.911 1.318-0.427 0.927-0.815 1.968-0.817 3.185-0.004 2.871 1.527 2.415 1.745 1.455-1.179-0.65-0.403-5.454 0.996-6.852 0.329-0.329 0.756-0.587 1.154-0.146 1.324 1.466 0.196 5.285-0.827 6.998-0.706 1.183-2.022 2.277-3.369 1.333-0.617-0.432-0.88-1.647-0.878-2.697 0.004-1.783 0.642-3.381 1.531-4.662 0.47-0.677 1.81-1.945 2.43-2.578 0.815-0.834 0.906-0.959 1.684-2.037 0.574-0.796 1.694-2.39 1.392-3.435zM26.483 5.339c-0.3-0.025-0.876 0.14-1.135 0.249-0.19 0.080-0.22 0.175-0.327 0.362l-1.282 2.163c-0.301 0.493-2.018 3.084-1.633 3.73 0.165 0.025 1.396-0.514 1.663-0.62 0.368-0.146 0.527-0.134 0.687-0.463 0.264-0.544 0.584-2.175 0.724-2.81 0.1-0.453 0.294-1.531 0.659-1.683 0.138 0.217 0.257 1.408 1.107 2.106 0.856 0.702 2.067-0.414 2.366-0.345-0.073 0.348-0.731 0.915-0.949 1.13-0.44 0.433-2.327 1.67-3.11 2.264-0.634 0.481-1.131 0.967-1.634 1.627-1.48 1.939-2.633 5.322-0.829 7.428 0.163 0.191 0.44 0.353 0.618 0.498l0.060 0.052c-0.829-0.219-1.979-1.044-2.517-1.469-2.32-1.831-3.654-5.359-3.004-8.553 0.233-1.146 0.597-1.971 1.104-2.847 0.54-0.934 1.14-1.512 1.805-2.145 0.121-0.116 0.368-0.307 0.536-0.43 2.43-1.782 5.528-2.218 8.409-1.166 0.297 0.108 0.61 0.286 0.88 0.368-0.009 0.009-0.026 0.007-0.030 0.023l-0.238 0.193c-0.79 0.735-2.945 2.798-3.722 1.101-0.121-0.264-0.118-0.551-0.206-0.763zM26.191 3.57c-2.249 0.154-3.752 0.83-5.368 2.087-1.139 0.886-2.139 2.328-2.68 3.662-0.459 1.134-0.738 2.52-0.648 3.924 0.315 4.892 4.347 8.938 9.678 8.675 1.313-0.065 2.606-0.447 3.623-0.96 3.244-1.637 5.207-4.971 5.049-8.722-0.201-4.776-4.474-9.021-9.655-8.666z"></path>
<path fill="#fff" d="M12.966 25.33c0.212-0.236 0.402-0.434 0.615-0.669 0.118-0.129 0.183-0.182 0.331-0.312l0.247-0.265c0.053-0.075 0.010-0 0.063-0.103l-1.305 0c-0.182 0.038-0.85 0.992-1.081 1.108l0.004-1.108-1.174 0.001 0.011 3.59 1.158-0.018c0.007-1.027-0.112-0.919 0.257-1.386 0.135 0.103 0.742 1.167 0.88 1.4l1.399-0.002-0.697-1.112c-0.157-0.231-0.641-0.927-0.71-1.125z"></path>
<path fill="#fff" d="M29.273 26.57c-0.109 0.24-0.412 0.387-0.638 0.179-0.167-0.154-0.215-0.574-0.108-0.832 0.267-0.644 1.074-0.069 0.746 0.653zM28.502 27.367c0.368 0.316 0.853 0.418 1.359 0.067 0.72-0.499 0.701-2.114-0.181-2.467-0.764-0.305-1.116 0.186-1.29 0.308-0.026-0.409 0.138-0.329-0.946-0.312l0.001 3.486 1.047-0.001 0.010-1.082z"></path>
<path fill="#fff" d="M18.741 27.551c0.607 0.151 0.529-0.11 0.681-0.587 0.104-0.326 0.183-0.74 0.339-1-0.022 0.542-0.091 0.994-0.063 1.605l0.921-0.011 0-2.602-1.19-0.002-0.467 1.383-0.424-1.386-1.202 0.014 0.009 2.605 0.907 0.003c0.060-0.558-0.025-1.050-0.053-1.575l0.542 1.553z"></path>
<path fill="#fff" d="M21.763 27.56c0.031-0.6-0.046-1.052-0.049-1.605l0.527 1.618 0.474-0.019 0.504-1.492c0.004-0.008 0.017-0.014 0.020-0.033s0.013-0.023 0.021-0.033c-0.032 0.531-0.111 1.016-0.053 1.578l0.906-0.013 0.001-2.606-1.19 0.014-0.45 1.363c-0.152-0.283-0.293-1.239-0.505-1.382l-1.128 0.028 0.006 2.591 0.917-0.008z"></path>
<path fill="#fff" d="M35.476 26.436c0.004 0.211-0.027 0.419-0.162 0.526-0.125 0.099-0.422 0.124-0.535 0.021-0.384-0.353 0.517-0.497 0.696-0.546zM34.694 25.762c0.221-0.074 0.266-0.4 0.656-0.213 0.103 0.049 0.179 0.157 0.082 0.28-0.184 0.235-1.22 0.038-1.653 0.561-0.344 0.415-0.087 1.008 0.331 1.177 0.575 0.233 1.028-0.012 1.43-0.234l0.062 0.238 1.054-0.006c-0.038-0.144-0.078-0.096-0.114-0.268-0.025-0.116-0.016-0.284-0.015-0.407 0.005-0.907 0.143-1.653-0.485-1.899-0.363-0.142-1.031-0.136-1.426-0.064-0.507 0.093-0.788 0.291-0.82 0.833l0.9 0z"></path>
<path fill="#fff" d="M37.856 26.591h0.756l0.008 0.978 1.037-0.001-0.001-2.617-1.043 0.017-0.017 0.856-0.738 0.001-0.003-0.873-1.037 0.015 0.008 2.602 1.027-0.005z"></path>
<path fill="#fff" d="M25.322 25.962c-0.008-0.291 0.154-0.44 0.455-0.435 0.269 0.005 0.436 0.178 0.446 0.433l-0.901 0.002zM26.175 26.783c-0.223 0.425-0.786 0.239-0.869-0.276l1.958-0.017c0.158-1.898-2.504-2.136-2.94-0.642-0.264 0.905 0.243 1.56 0.939 1.744 0.388 0.102 0.916 0.061 1.272-0.085 0.354-0.145 0.535-0.349 0.657-0.723l-1.017-0.002z"></path>
<path fill="#fff" d="M15.449 25.645c0.705-0.348 0.812 1.091 0.336 1.268-0.566 0.211-0.665-0.578-0.569-0.94 0.053-0.201 0.098-0.261 0.233-0.328zM17.071 26.616c0.447-2.004-2.486-2.32-2.884-0.751-0.23 0.908 0.258 1.598 1.040 1.748 0.964 0.186 1.672-0.231 1.844-0.997z"></path>
<path fill="#fff" d="M32.488 26.554c-0.165 0.096-0.021-0.020-0.131 0.161-0.042 0.069-0.039 0.087-0.093 0.137-0.157 0.143-0.684 0.215-0.697-0.557-0.010-0.639 0.484-1.080 0.846-0.342l1.014-0.006c0.078-1.325-2.871-1.628-2.904 0.304-0.014 0.816 0.519 1.341 1.32 1.393 0.879 0.056 1.528-0.282 1.619-1.088l-0.974-0z"></path>
<path fill="#fff" d="M39.848 25.727l0.882 0.001 0.005 1.841 1.043 0.003-0.003-1.841 0.89-0.017 0.001-0.759-2.842-0.003z"></path>
</svg>
