<!-- Generated by IcoMoon.io -->
<svg version="1.1" xmlns="http://www.w3.org/2000/svg" width="53" height="32" viewBox="0 0 53 32">
<path fill="#fff" d="M20.612 13.464c-0.14-1.21 0.518-2.173 1.479-2.681 0.3-0.159 0.705-0.257 1.090-0.3 0.871-0.098 1.608 0.221 2.115 0.621 1.861 1.47 1.017 4.57-1.579 4.794-1.565 0.135-2.924-0.87-3.105-2.434zM26.451 10.562l3.532 0.007-0.002 1.108-1.117 0.005 0 4.136-1.282 0v-4.135l-1.136-0.008 0.004-1.113zM17.169 15.839c-0.032-0.122-0.026-0.924-0.013-1.095 0.677 0.122 1.757 0.223 1.956-0.452 0.216-0.732-0.646-1.034-1.159-1.405-1.009-0.73-0.568-2.663 1.415-2.396 0.369 0.050 0.282-0.015 0.275 1.126-0.22-0.007-0.901-0.119-0.976 0.246-0.052 0.25 0.427 0.566 0.576 0.681 0.459 0.355 1.005 0.665 1.096 1.46 0.142 1.249-0.912 1.899-1.942 1.899-0.283 0-0.999-0.001-1.226-0.064zM32.055 10.888c0.063-0.117-0.178-0.458-0.275-0.618-0.118-0.197-0.227-0.387-0.342-0.585-0.735-1.26-1.494-2.528-2.216-3.788-0.075-0.132-0.075-0.177-0.25-0.214-0.845-0.178-1.641-0.26-2.517-0.249-2.003 0.027-4.067 0.674-5.66 1.738-0.48 0.321-0.639 0.451-1.062 0.791-0.182 0.147-0.326 0.292-0.484 0.442-1.482 1.404-2.514 3.195-3.003 5.279-0.123 0.523-0.185 1.074-0.227 1.632-0.012 0.161-0.049 0.273 0.029 0.402 0.388 0.637 0.813 1.394 1.195 2.047 0.050 0.085 0.621 1.116 0.693 1.141 0.091 0.031 8.478 0.004 9.223 0.009 0.246 0.002 0.202 0.009 0.302-0.165 0.058-0.1 0.113-0.198 0.17-0.293 0.576-0.968 1.119-1.947 1.702-2.912 0.687-1.136 1.357-2.348 2.044-3.497 0.228-0.382 0.466-0.77 0.677-1.161z"></path>
<path fill="#fff" d="M30.806 19.659c0.006-0.080 1.563-4.259 1.72-4.685 0.042-0.114 0.084-0.225 0.125-0.339 0.049-0.133 0.044-0.239 0.2-0.239h1.092c0.176 0 0.16 0.099 0.215 0.242 0.316 0.816 1.908 4.955 1.906 5.024l-1.139 0.003c-0.162 0-0.136-0.068-0.25-0.393l-0.324-0.935c-0.114-0.338-0.086-0.373-0.26-0.372l-1.12-0.003 0.362-1.121 0.49-0c-0.017-0.134-0.337-1.234-0.379-1.281-0.125 0.326-0.23 0.689-0.343 1.028l-0.943 2.838c-0.039 0.117-0.043 0.194-0.111 0.229-0.058 0.025-1.123 0.024-1.242 0.005zM32.127 25.037c0.117-0.026 0.724-0.449 0.843-0.539l0.763-0.608c0.437-0.363 1.002-0.978 1.346-1.415 0.784-0.995 1.431-2.146 1.865-3.639 0.551-1.898 0.517-4.101-0.092-6.020-0.052-0.163-0.312-0.928-0.384-0.987-0.053-0.043-2.429-0.037-2.7-0.022l-4.298 7.468c-0.37 0.636-0.413 0.554-0.239 0.847l2.644 4.527c0.060 0.104 0.167 0.327 0.252 0.388z"></path>
<path fill="#fff" d="M24.21 26.292c0.179 0.081 0.634 0.118 0.862 0.169 0.030-0.039 0.134-0.021 0.174-0.016 0.515 0.072 1.453 0.112 1.95 0.076 0.222-0.016 0.456-0.030 0.683-0.053 0.524-0.054 1.311-0.24 1.849-0.376l0.567-0.171c-0.020-0.064-0.008-0.026-0.039-0.082l-0.724-1.239c-0.292-0.469-0.683-1.217-0.949-1.627-0.143-0.22-0.274-0.476-0.425-0.723-0.034-0.055-0.047-0.096-0.085-0.156l-0.428-0.739c-0.33-0.551-0.215-0.468-0.706-0.468h-8.376c-0.154 0-0.309 0.001-0.463-0.001-0.27-0.002-0.187 0.042-0.46 0.474-0.105 0.166-0.046 0.18 0.045 0.322 0.126 0.196 0.248 0.362 0.38 0.546l0.62 0.769c0.049 0.062 0.069 0.052 0.116 0.106l0.337 0.368c0.090 0.090 0.177 0.142 0.26 0.221 0.053 0.051 0.040 0.068 0.105 0.117l1.18 0.914c0.097 0.055 0.187 0.124 0.281 0.182 0.102 0.062 0.186 0.115 0.286 0.176 0.24 0.146 0.996 0.532 1.253 0.619l0.33 0.133c0.294 0.103 1.185 0.418 1.452 0.43-0.039 0.037-0.003 0.029-0.074 0.029z"></path>
<path fill="#fff" d="M23.253 11.606c-0.817 0.098-1.478 0.846-1.363 1.789 0.103 0.838 0.813 1.491 1.781 1.376 0.814-0.097 1.449-0.842 1.342-1.788-0.093-0.817-0.829-1.488-1.76-1.377z"></path>
<path fill="#fff" d="M32.269 7.153c0.032 0.066 0.064 0.11 0.103 0.174 0.061 0.1 0.141 0.242 0.203 0.354 0.139 0.249 0.289 0.474 0.418 0.712 0.139 0.256 0.281 0.469 0.413 0.717l0.415 0.713c0.33 0.032 1.154 0.009 1.498 0.007-0.019-0.055-0.35-0.464-0.421-0.547l-0.355-0.404c-0.265-0.306-0.546-0.564-0.848-0.838-0.067-0.060-0.129-0.108-0.202-0.169l-0.312-0.244c-0.046-0.031-0.065-0.051-0.106-0.079l-0.45-0.308c-0.085-0.055-0.388-0.267-0.458-0.285l0.101 0.197z"></path>
<path fill="#fff" d="M24.21 26.292c0.071 0 0.034 0.009 0.074-0.029-0.267-0.012-1.157-0.327-1.452-0.43l-0.33-0.133c-0.257-0.087-1.013-0.473-1.253-0.619-0.1-0.061-0.184-0.114-0.286-0.176-0.095-0.057-0.184-0.126-0.281-0.182l-1.18-0.914c-0.066-0.049-0.053-0.066-0.105-0.117-0.082-0.080-0.169-0.132-0.26-0.221l-0.337-0.368c-0.047-0.054-0.067-0.044-0.116-0.106l-0.62-0.769c-0.132-0.184-0.253-0.35-0.38-0.546-0.091-0.142-0.15-0.156-0.045-0.322 0.273-0.432 0.19-0.476 0.46-0.474 0.154 0.001 0.309 0.001 0.463 0.001h8.376c0.492-0 0.377-0.083 0.706 0.468l0.428 0.739c0.038 0.060 0.051 0.101 0.085 0.156 0.152 0.247 0.282 0.504 0.425 0.723 0.267 0.409 0.657 1.158 0.949 1.627l0.724 1.239c0.032 0.056 0.019 0.018 0.039 0.082l-0.567 0.171c-0.538 0.136-1.325 0.322-1.849 0.376-0.227 0.023-0.461 0.037-0.683 0.053-0.497 0.035-1.436-0.004-1.95-0.076-0.040-0.006-0.144-0.023-0.174 0.016 0.218 0.009 0.468 0.053 0.695 0.071 1.072 0.087 2.394 0.009 3.425-0.252 0.201-0.051 0.399-0.1 0.596-0.162 0.186-0.058 0.372-0.13 0.562-0.18-0.022-0.087-0.596-1.039-0.691-1.204l-2.070-3.544c-0.216-0.371-0.11-0.333-0.614-0.334l-8.431-0.004c-0.656 0-0.622-0.061-0.764 0.188-0.27 0.473-0.303 0.401-0.164 0.616 0.512 0.793 1.11 1.503 1.705 2.038l0.25 0.232c0.496 0.446 1.374 1.036 1.927 1.335 0.729 0.395 1.787 0.86 2.713 1.030z"></path>
<path fill="#fff" d="M32.168 6.955c0.069 0.018 0.373 0.23 0.458 0.285l0.45 0.308c0.040 0.028 0.060 0.049 0.106 0.079l0.312 0.244c0.073 0.061 0.135 0.108 0.202 0.169 0.302 0.274 0.584 0.532 0.848 0.838l0.355 0.404c0.071 0.083 0.402 0.492 0.421 0.547-0.344 0.002-1.169 0.025-1.498-0.007l-0.415-0.713c-0.132-0.248-0.274-0.462-0.413-0.717-0.129-0.238-0.279-0.463-0.418-0.712-0.063-0.112-0.143-0.254-0.203-0.354-0.039-0.064-0.071-0.108-0.103-0.174l-0.101-0.197zM32.558 7.14c-0.14-0.085-0.347-0.236-0.484-0.286 0.001 0.014 1.662 2.959 1.757 2.997 0.060 0.024 1.386 0.015 1.554 0.010-0.007-0.066-0.265-0.378-0.327-0.457l-0.362-0.435c-0.065-0.077-0.133-0.131-0.199-0.208-0.403-0.474-1.433-1.313-1.938-1.621z"></path>
</svg>
