<!-- Generated by IcoMoon.io -->
<svg version="1.1" xmlns="http://www.w3.org/2000/svg" width="53" height="32" viewBox="0 0 53 32">
<path fill="#fdfeff" d="M33.905 14.632c0.334 0.493 0.444 0.823 0.965 2.046l-1.724 0.004 0.76-2.050zM32.692 18.092l2.78 0.012 0.595 1.314 1.97-0.020-2.944-6.861-1.96-0.002c-0.668 1.119-2.69 5.651-3.025 6.901l1.93-0.047 0.655-1.295z"></path>
<path fill="#fdfeff" d="M25.016 14.069l1.953 0.021-0 5.325 1.96 0.007 0.014-5.32c0.675-0.038 1.234-0.021 1.901-0.019l0.022-1.568-5.85-0.002 0 1.555z"></path>
<path fill="#808080" d="M10.033 16.734l1.69-0.020c0.526-0.003 0.853 0.32 0.814 0.617-0.001 0.793-1.153 0.78-2.506 0.619l0.002-1.217zM10.044 15.209c0.023-0.681-0.042-0.646 0.002-1.283 0.963-0.002 2.395-0.084 2.277 0.726-0.011 0.681-1.271 0.675-2.279 0.557zM13.563 15.768c2.869-2.71-1.999-3.83-5.479-3.156l-0.014 6.725c1.081 0.193 4.554 0.209 5.458-0.168 0.67-0.279 1.146-0.8 1.107-1.709-0.045-1.064-0.54-1.164-1.073-1.692z"></path>
<path fill="#808080" d="M17.143 16.396c-0.359-2.755 3.304-3.241 3.626-0.751 0.365 2.82-3.335 2.983-3.626 0.751zM22.643 17.029c1.598-4.741-6.075-6.413-7.361-2.212-1.487 4.858 5.851 6.693 7.361 2.212z"></path>
<path fill="#808080" d="M26.969 19.415l0-5.325-1.953-0.021-0.015 5.372z"></path>
<path fill="#808080" d="M23.052 14.083l0.99 0.022 0.975-0.036-0.017-1.554-1.963 0.037z"></path>
<path fill="#fdfffb" d="M42.51 15.552c0.781-1.076 1.591-1.702 2.557-3.045-1.71-0.004-1.020 0.010-2.039 0.030-0.647 0.767-1.84 2.283-2.6 2.679l-0.041-2.693c-0.917-0.012-0.995 0.054-1.929 0.014l0.098 6.88 1.801 0.002c0.017-1.526-0.182-1.325 0.774-2.358 0.531 0.532 1.351 1.622 1.878 2.363l2.255 0.009c-0.839-1.355-1.942-2.612-2.753-3.881z"></path>
</svg>
