<!-- Generated by IcoMoon.io -->
<svg version="1.1" xmlns="http://www.w3.org/2000/svg" width="53" height="32" viewBox="0 0 53 32">
<path fill="#fff" d="M43.733 20.507c-0.009-0.103-0.031-0.135-0.065-0.219l-1.198-3.354c-0.296-0.846-0.676-1.845-0.945-2.667-0.054-0.165-0.102-0.279-0.156-0.441-0.436-1.308-0.988-2.704-1.437-4.024l-1.262-3.574h-5.12l-0.967 2.731c0.074 0.11 0.157 0.212 0.239 0.33 1.538 2.209 1.676 5.45 0.324 7.686-0.076 0.126-0.128 0.233-0.21 0.358-0.087 0.133-0.159 0.226-0.245 0.352-0.154 0.227-0.591 0.743-0.811 0.924-0.118 0.097-0.183 0.197-0.305 0.292-0.257 0.2-0.359 0.308-0.659 0.507-0.512 0.339-0.955 0.58-1.531 0.802-0.117 0.045-0.798 0.234-0.87 0.296h5.006c0.007-0.079 0.112-0.361 0.146-0.451 0.053-0.141 0.099-0.28 0.156-0.442 0.108-0.308 0.213-0.607 0.32-0.903l1.909-5.344c0.018 0.079 0.045 0.121 0.075 0.21l0.392 1.115c0.364 0.941 0.738 2.17 1.109 3.129 0.162 0.418 0.834 2.434 0.955 2.686h5.148z"></path>
<path fill="#fff" d="M9.6 6.228c0.038 0.163 0.098 0.287 0.153 0.444l0.476 1.344c0.096 0.292 0.213 0.581 0.313 0.882l0.476 1.344c0.053 0.147 0.099 0.286 0.158 0.439 0.304 0.786 0.663 1.865 0.959 2.682l1.906 5.348c0.041 0.113 0.611 1.66 0.622 1.796h5.092l0.921-2.549c0.036-0.106 0.076-0.17 0.046-0.239-0.007-0.015-0.125-0.175-0.154-0.215-0.107-0.148-0.18-0.261-0.271-0.412-1.087-1.813-1.388-3.937-0.624-6.224l0.425-0.969c0.17-0.293 0.34-0.59 0.539-0.855 0.957-1.272 2.093-2.134 3.637-2.649l0.544-0.167h-5.063l-0.472 1.32c-0.062 0.159-0.11 0.302-0.165 0.461-0.107 0.306-0.193 0.589-0.31 0.884-0.12 0.304-0.202 0.596-0.321 0.902-0.117 0.302-0.196 0.581-0.313 0.882-0.264 0.683-0.537 1.591-0.788 2.227-0.056 0.14-0.086 0.358-0.191 0.435-0.012-0.145-0.1-0.313-0.146-0.451-0.423-1.28-0.987-2.708-1.415-3.989l-0.86-2.44c-0.025-0.075-0.064-0.154-0.082-0.231h-5.092z"></path>
<path fill="#fff" d="M23.339 13.253c0 0.769 0.273 1.697 0.789 2.226 0.041 0.042 0.061 0.057 0.097 0.102 0.163 0.204 0.056 0.078 0.215 0.212 0.044 0.037 0.059 0.060 0.102 0.097 0.205 0.176 0.516 0.374 0.771 0.48 0.941 0.392 1.765 0.394 2.707 0 0.372-0.156 0.689-0.403 0.986-0.664l0.374-0.451c0.819-1.186 0.825-2.683 0-3.864-0.179-0.256-0.578-0.642-0.837-0.813-0.165-0.109-0.324-0.212-0.528-0.297-2.389-0.99-4.677 0.812-4.677 2.971z"></path>
<path fill="#fff" d="M14.958 24.006h-1.024l0.003 1.744h-0.282v-1.991h1.306l-0.003 0.247zM15.945 25.772c-0.201 0-0.382-0.044-0.543-0.132s-0.288-0.21-0.38-0.365c-0.092-0.156-0.138-0.329-0.138-0.521s0.046-0.365 0.138-0.521c0.092-0.156 0.219-0.277 0.38-0.366s0.342-0.132 0.543-0.132c0.199 0 0.379 0.044 0.54 0.132s0.287 0.209 0.378 0.364c0.091 0.155 0.137 0.329 0.137 0.522s-0.045 0.367-0.137 0.522c-0.091 0.155-0.217 0.276-0.378 0.364s-0.341 0.132-0.54 0.132zM15.945 25.519c0.146 0 0.277-0.033 0.394-0.1s0.209-0.158 0.276-0.275c0.067-0.117 0.101-0.247 0.101-0.391s-0.034-0.275-0.101-0.391-0.159-0.208-0.276-0.274c-0.117-0.066-0.248-0.1-0.394-0.1s-0.278 0.033-0.397 0.1c-0.118 0.066-0.211 0.158-0.279 0.274s-0.101 0.247-0.101 0.391c0 0.144 0.034 0.274 0.101 0.391s0.16 0.208 0.279 0.275c0.118 0.066 0.251 0.1 0.397 0.1zM19.031 23.759v1.991h-0.279v-1.744h-0.882l-0.020 0.583c-0.009 0.275-0.032 0.498-0.067 0.668s-0.091 0.299-0.166 0.385c-0.076 0.086-0.178 0.129-0.307 0.129-0.059 0-0.119-0.008-0.179-0.023l0.020-0.253c0.030 0.008 0.061 0.011 0.091 0.011 0.081 0 0.147-0.033 0.196-0.098s0.086-0.164 0.111-0.294c0.025-0.131 0.041-0.303 0.048-0.518l0.031-0.839h1.402zM20.547 25.772c-0.201 0-0.382-0.044-0.543-0.132s-0.288-0.21-0.38-0.365c-0.092-0.156-0.138-0.329-0.138-0.521s0.046-0.365 0.138-0.521c0.092-0.156 0.219-0.277 0.38-0.366s0.342-0.132 0.543-0.132c0.199 0 0.379 0.044 0.54 0.132s0.287 0.209 0.378 0.364c0.091 0.155 0.137 0.329 0.137 0.522s-0.046 0.367-0.137 0.522-0.217 0.276-0.378 0.364c-0.161 0.088-0.341 0.132-0.54 0.132zM20.547 25.519c0.146 0 0.277-0.033 0.394-0.1s0.209-0.158 0.276-0.275c0.067-0.117 0.101-0.247 0.101-0.391s-0.034-0.275-0.101-0.391c-0.067-0.117-0.159-0.208-0.276-0.274s-0.248-0.1-0.394-0.1-0.278 0.033-0.397 0.1c-0.119 0.066-0.212 0.158-0.279 0.274s-0.101 0.247-0.101 0.391c0 0.144 0.034 0.274 0.101 0.391s0.16 0.208 0.279 0.275c0.119 0.066 0.251 0.1 0.397 0.1zM22.953 25.772c-0.199 0-0.379-0.044-0.539-0.132s-0.286-0.209-0.377-0.364-0.137-0.329-0.137-0.522c0-0.194 0.046-0.367 0.137-0.522s0.217-0.276 0.378-0.364c0.161-0.088 0.341-0.132 0.54-0.132 0.156 0 0.298 0.026 0.427 0.078s0.239 0.13 0.33 0.232l-0.185 0.179c-0.15-0.157-0.337-0.236-0.56-0.236-0.148 0-0.282 0.033-0.401 0.1s-0.213 0.158-0.28 0.274-0.101 0.247-0.101 0.391c0 0.144 0.034 0.274 0.101 0.391s0.161 0.208 0.28 0.275c0.119 0.066 0.253 0.1 0.401 0.1 0.222 0 0.409-0.080 0.56-0.239l0.185 0.179c-0.091 0.102-0.201 0.18-0.331 0.233s-0.273 0.080-0.428 0.080zM26.165 25.252h-1.058l-0.219 0.498h-0.293l0.902-1.991h0.282l0.904 1.991h-0.299l-0.219-0.498zM26.065 25.024l-0.43-0.976-0.43 0.976h0.859zM28.873 25.75l-0.003-1.451-0.72 1.209h-0.131l-0.72-1.2v1.442h-0.273v-1.991h0.233l0.831 1.399 0.819-1.399h0.233l0.003 1.991h-0.273zM31.211 25.502v0.247h-1.445v-1.991h1.405v0.247h-1.121v0.612h0.998v0.242h-0.998v0.643h1.161zM32.434 23.759c0.258 0 0.461 0.062 0.609 0.185s0.222 0.293 0.222 0.509-0.074 0.386-0.222 0.509c-0.148 0.123-0.351 0.185-0.609 0.185h-0.492v0.603h-0.284v-1.991h0.777zM32.425 24.899c0.18 0 0.318-0.038 0.412-0.115s0.142-0.187 0.142-0.331c0-0.144-0.047-0.255-0.142-0.331s-0.232-0.115-0.412-0.115h-0.484v0.893h0.484zM33.66 23.759h0.282v1.536l1.178-1.536h0.262v1.991h-0.279v-1.533l-1.18 1.533h-0.262v-1.991zM36.695 24.874h-0.415v0.876h-0.279v-1.991h0.279v0.865h0.421l0.626-0.865h0.304l-0.711 0.964 0.745 1.027h-0.324l-0.646-0.876zM37.958 23.759h0.282v1.536l1.178-1.536h0.262v1.991h-0.279v-1.533l-1.18 1.533h-0.262v-1.991z"></path>
</svg>
