<!-- Generated by IcoMoon.io -->
<svg version="1.1" xmlns="http://www.w3.org/2000/svg" width="53" height="32" viewBox="0 0 53 32">
<path fill="#fff" d="M7.34 16.404l-1.747 1.025c-0.127 0.073-0.191 0.22-0.157 0.365l0.044 0.184c0.017 0.059 0.037 0.117 0.056 0.174 0.335 1.011 0.908 1.936 1.664 2.692 1.18 1.177 2.812 2.007 4.872 2.002 1.813-0.002 3.568-0.724 4.853-2.002 0.756-0.756 1.329-1.681 1.662-2.692 0.020-0.059 0.037-0.115 0.056-0.174l0.047-0.184c0.034-0.142-0.029-0.291-0.157-0.365l-1.747-1.025c-0.093-0.054-0.208-0.059-0.306-0.012-0.046 0.020-0.088 0.056-0.108 0.095-0.015 0.027-0.020 0.049-0.024 0.073-0.015 0.13-0.025 0.196-0.049 0.321-0.061 0.306-0.159 0.607-0.281 0.893l-0.005-0.005c-0.675 1.505-2.188 2.555-3.95 2.555-2.090 0-3.835-1.478-4.236-3.446-0.027-0.125-0.037-0.191-0.051-0.321-0.002-0.024-0.007-0.046-0.022-0.073-0.020-0.039-0.061-0.073-0.108-0.095-0.1-0.044-0.213-0.039-0.306 0.015z"></path>
<path fill="#fff" d="M7.34 16.409l-1.747 1.025c-0.127 0.073-0.188 0.218-0.157 0.365l0.046 0.184c0.308 1.067 0.962 2.112 1.718 2.868 1.18 1.177 2.809 2.007 4.865 2.002 1.813-0.002 3.578-0.724 4.86-2.002 0.756-0.756 1.329-1.681 1.662-2.692 0.020-0.059 0.039-0.115 0.056-0.174l0.047-0.183c0.037-0.142-0.029-0.291-0.157-0.365l-1.747-1.025c-0.095-0.054-0.208-0.061-0.306-0.012-0.046 0.020-0.113 0.083-0.125 0.169-0.012 0.078-0.037 0.228-0.054 0.321-0.054 0.267-0.113 0.487-0.289 0.888-0.631 1.454-2.188 2.555-3.95 2.555-2.090 0-3.852-1.478-4.253-3.446-0.027-0.125-0.037-0.193-0.059-0.321-0.017-0.103-0.056-0.147-0.103-0.169-0.103-0.049-0.215-0.042-0.308 0.012z"></path>
<path fill="#fff" d="M7.34 15.591l-1.747-1.025c-0.127-0.073-0.188-0.218-0.157-0.365l0.046-0.184c0.308-1.067 0.962-2.112 1.718-2.868 1.18-1.177 2.809-2.007 4.865-2.002 1.813 0.002 3.578 0.724 4.86 2.002 0.756 0.756 1.329 1.681 1.662 2.692 0.020 0.059 0.039 0.115 0.056 0.174l0.047 0.184c0.037 0.142-0.029 0.291-0.157 0.365l-1.747 1.025c-0.095 0.054-0.208 0.061-0.306 0.012-0.046-0.020-0.113-0.083-0.125-0.169-0.012-0.078-0.037-0.228-0.054-0.321-0.054-0.267-0.113-0.487-0.289-0.888-0.631-1.454-2.188-2.555-3.95-2.555-2.090 0-3.852 1.478-4.253 3.446-0.027 0.125-0.037 0.193-0.059 0.321-0.017 0.103-0.056 0.147-0.103 0.169-0.103 0.049-0.215 0.041-0.308-0.012z"></path>
<path fill="#fff" d="M9.885 13.019c-0.039 0.054-0.024 0.122 0.064 0.245l1.931 2.53c0.061 0.081 0.117 0.142 0.125 0.21v0c-0.007 0.066-0.064 0.127-0.125 0.21l-1.931 2.53c-0.068 0.095-0.103 0.191-0.064 0.242 0.051 0.073 0.184 0.007 0.269-0.039l4.711-2.731 0.196-0.12c0.105-0.071 0.105-0.118 0-0.184l-0.196-0.12-4.711-2.736c-0.091-0.054-0.22-0.113-0.269-0.039z"></path>
<path fill="#fff" d="M20.002 11.671v4.011h1.074v-1.581h0.847v1.581h1.074v-4.011h-1.074v1.517h-0.847v-1.517z"></path>
<path fill="#fff" d="M24.925 14.404c0 0.032-0.002 0.064-0.005 0.093-0.002 0.032-0.010 0.061-0.017 0.090-0.039 0.115-0.1 0.196-0.179 0.252-0.081 0.051-0.164 0.081-0.25 0.081-0.056 0-0.113-0.017-0.169-0.051s-0.103-0.090-0.142-0.169c-0.039-0.078-0.061-0.181-0.061-0.311 0.002-0.135 0.029-0.245 0.078-0.33 0.051-0.086 0.12-0.152 0.203-0.201 0.083-0.046 0.171-0.081 0.267-0.1 0.095-0.017 0.186-0.027 0.276-0.032v0.678h-0.002zM26.004 15.618c-0.024-0.135-0.041-0.274-0.051-0.428-0.010-0.152-0.012-0.306-0.012-0.463v-1.444c0.002-0.198-0.015-0.391-0.049-0.58-0.032-0.191-0.098-0.365-0.193-0.519s-0.235-0.277-0.416-0.37c-0.181-0.093-0.421-0.142-0.715-0.142-0.181 0.002-0.347 0.017-0.504 0.049-0.154 0.029-0.294 0.066-0.414 0.113-0.12 0.044-0.215 0.088-0.289 0.132l0.191 0.697c0.113-0.073 0.237-0.125 0.367-0.166 0.132-0.037 0.272-0.056 0.426-0.056 0.181 0.002 0.321 0.051 0.411 0.149 0.090 0.095 0.137 0.223 0.137 0.377v0.088c-0.223 0-0.441 0.029-0.651 0.088-0.21 0.054-0.399 0.14-0.57 0.257-0.171 0.113-0.303 0.262-0.404 0.445-0.1 0.181-0.152 0.399-0.154 0.653 0.002 0.233 0.046 0.436 0.135 0.614 0.088 0.176 0.21 0.316 0.362 0.416 0.154 0.1 0.328 0.152 0.526 0.154 0.174 0 0.33-0.037 0.477-0.108 0.147-0.076 0.274-0.186 0.382-0.338h0.015l0.056 0.382h0.937v-0.002z"></path>
<path fill="#fff" d="M35.83 13.46c-0.027 0.002-0.051 0.005-0.073 0.007-0.022 0-0.051 0.002-0.081 0.002-0.13-0.002-0.245-0.027-0.343-0.078-0.103-0.051-0.184-0.122-0.242-0.213-0.059-0.088-0.088-0.193-0.088-0.311 0.002-0.179 0.056-0.316 0.164-0.406 0.105-0.090 0.255-0.135 0.438-0.137 0.042 0 0.081 0.002 0.115 0.007 0.039 0.002 0.076 0.010 0.113 0.017v1.111h-0.002zM36.845 11.727c-0.132-0.024-0.296-0.042-0.489-0.054s-0.401-0.017-0.624-0.017c-0.183 0-0.36 0.010-0.529 0.032-0.169 0.020-0.323 0.054-0.462 0.095s-0.252 0.095-0.343 0.157c-0.149 0.1-0.262 0.22-0.343 0.36-0.078 0.137-0.12 0.306-0.122 0.504 0.002 0.188 0.046 0.35 0.13 0.482 0.086 0.135 0.198 0.24 0.338 0.321s0.294 0.14 0.46 0.174v0.015c-0.108 0.032-0.203 0.073-0.282 0.12-0.081 0.049-0.144 0.098-0.198 0.157-0.086 0.098-0.157 0.213-0.218 0.347-0.061 0.137-0.11 0.274-0.152 0.416-0.039 0.142-0.076 0.272-0.11 0.391-0.024 0.086-0.054 0.166-0.088 0.24-0.034 0.071-0.073 0.14-0.113 0.201l1.106-0c0.024-0.044 0.047-0.093 0.066-0.142s0.037-0.1 0.047-0.152c0.039-0.162 0.081-0.321 0.12-0.482 0.042-0.162 0.093-0.303 0.152-0.431 0.064-0.125 0.142-0.22 0.24-0.279 0.037-0.022 0.078-0.039 0.125-0.056s0.103-0.024 0.166-0.024h0.098v1.564h1.025v-3.938z"></path>
<path fill="#fff" d="M37.105 11.671v3.979h4.128l0.051 1.096h0.803l0.042-1.862-0.374-0.017v-3.196h-1.040v3.108h-0.756v-3.108h-1.047v3.108h-0.759v-3.108z"></path>
<path fill="#fff" d="M42.986 13.293c0-0.098 0.012-0.203 0.029-0.306 0.020-0.103 0.046-0.201 0.088-0.291 0.037-0.088 0.088-0.159 0.149-0.215 0.061-0.054 0.135-0.083 0.22-0.083 0.103 0.002 0.188 0.042 0.252 0.12 0.066 0.078 0.113 0.186 0.142 0.318 0.029 0.135 0.047 0.286 0.044 0.455l-0.925-0v0.002zM44.823 14.028c0.012-0.054 0.020-0.122 0.025-0.208s0.007-0.196 0.007-0.335c-0.002-0.592-0.117-1.047-0.347-1.363s-0.553-0.477-0.974-0.48c-0.299 0-0.565 0.086-0.798 0.252-0.235 0.164-0.421 0.404-0.556 0.715-0.137 0.311-0.206 0.685-0.21 1.123 0 0.409 0.064 0.756 0.188 1.043 0.127 0.284 0.311 0.504 0.558 0.656 0.242 0.149 0.543 0.225 0.896 0.225 0.203 0 0.399-0.015 0.587-0.046s0.352-0.076 0.489-0.127l-0.144-0.749c-0.093 0.032-0.201 0.061-0.328 0.088-0.127 0.024-0.264 0.039-0.414 0.039-0.154 0-0.294-0.027-0.416-0.083-0.125-0.054-0.22-0.14-0.294-0.264-0.071-0.122-0.113-0.284-0.117-0.484h1.848z"></path>
<path fill="#fff" d="M46.032 13.293c0-0.098 0.012-0.203 0.029-0.306 0.020-0.103 0.049-0.201 0.086-0.289 0.039-0.088 0.088-0.162 0.152-0.215 0.059-0.054 0.132-0.081 0.218-0.083 0.103 0.002 0.188 0.042 0.252 0.12 0.066 0.081 0.113 0.186 0.142 0.318 0.029 0.135 0.044 0.286 0.044 0.455h-0.923zM47.872 14.028c0.012-0.054 0.020-0.122 0.027-0.208 0.005-0.083 0.007-0.196 0.007-0.335-0.002-0.592-0.12-1.047-0.348-1.363-0.23-0.316-0.555-0.475-0.976-0.48-0.299 0.002-0.565 0.086-0.798 0.252-0.232 0.164-0.418 0.404-0.555 0.715s-0.206 0.685-0.208 1.123c0 0.409 0.064 0.754 0.191 1.043 0.125 0.284 0.311 0.504 0.556 0.653 0.242 0.149 0.541 0.225 0.896 0.228 0.203-0.002 0.399-0.017 0.585-0.046 0.188-0.032 0.352-0.076 0.492-0.127l-0.144-0.749c-0.093 0.032-0.201 0.064-0.328 0.088-0.127 0.027-0.264 0.039-0.411 0.039-0.157 0-0.296-0.027-0.416-0.083-0.122-0.054-0.22-0.14-0.294-0.264-0.073-0.12-0.113-0.284-0.117-0.484h1.843z"></path>
<path fill="#fff" d="M21.007 18.653h0.247c0.137 0 0.264 0.017 0.374 0.054 0.113 0.037 0.201 0.093 0.267 0.171s0.1 0.176 0.103 0.299c-0.002 0.127-0.037 0.228-0.108 0.303-0.068 0.073-0.159 0.127-0.267 0.159-0.11 0.032-0.228 0.046-0.352 0.046-0.047 0-0.091 0-0.137-0.005s-0.088-0.010-0.125-0.017l-0-1.011h-0.002zM21.015 17.060c0.081-0.017 0.169-0.027 0.264-0.027 0.188 0 0.338 0.039 0.448 0.115 0.108 0.076 0.164 0.188 0.169 0.34-0.002 0.108-0.032 0.198-0.088 0.269-0.059 0.071-0.135 0.125-0.233 0.164-0.098 0.037-0.203 0.056-0.318 0.056h-0.242v-0.918zM20.014 20.324c0.115 0.012 0.255 0.022 0.423 0.032s0.345 0.012 0.531 0.012c0.162 0 0.335-0.005 0.521-0.025 0.186-0.017 0.369-0.049 0.553-0.098 0.179-0.044 0.345-0.113 0.494-0.201s0.269-0.203 0.357-0.345c0.090-0.142 0.137-0.316 0.139-0.521 0-0.157-0.037-0.296-0.108-0.423-0.071-0.13-0.174-0.235-0.311-0.323-0.137-0.086-0.303-0.147-0.497-0.179v-0.017c0.135-0.032 0.257-0.088 0.369-0.164 0.113-0.081 0.203-0.181 0.274-0.303 0.068-0.125 0.103-0.269 0.103-0.433 0-0.174-0.039-0.321-0.113-0.441-0.073-0.117-0.171-0.213-0.296-0.284s-0.259-0.125-0.411-0.164c-0.149-0.037-0.306-0.061-0.46-0.073-0.154-0.015-0.303-0.020-0.44-0.020-0.201 0.002-0.401 0.010-0.595 0.022-0.196 0.015-0.374 0.034-0.536 0.059v3.889z"></path>
<path fill="#fff" d="M27.377 17.99c0.002-0.098 0.012-0.201 0.032-0.306 0.020-0.103 0.049-0.201 0.086-0.286 0.039-0.088 0.088-0.162 0.149-0.215s0.135-0.083 0.22-0.086c0.103 0.002 0.188 0.042 0.252 0.12 0.066 0.078 0.113 0.186 0.142 0.318 0.029 0.135 0.044 0.286 0.044 0.455l-0.925-0zM29.218 18.724c0.012-0.054 0.020-0.122 0.027-0.208 0.002-0.083 0.007-0.196 0.007-0.333-0.002-0.595-0.12-1.047-0.348-1.363-0.23-0.316-0.553-0.477-0.976-0.477-0.299 0-0.565 0.083-0.798 0.25-0.235 0.164-0.418 0.404-0.556 0.715s-0.206 0.683-0.21 1.123c0 0.409 0.064 0.754 0.188 1.040 0.127 0.286 0.313 0.502 0.556 0.653 0.245 0.152 0.543 0.228 0.898 0.228 0.203 0 0.399-0.017 0.585-0.049 0.188-0.032 0.352-0.073 0.489-0.127l-0.144-0.749c-0.093 0.034-0.201 0.064-0.328 0.088-0.127 0.027-0.264 0.039-0.414 0.039-0.154 0-0.294-0.027-0.416-0.081-0.122-0.056-0.22-0.144-0.294-0.264-0.073-0.122-0.113-0.284-0.118-0.485h1.85z"></path>
<path fill="#fff" d="M29.528 20.349h0.969l0.042-1.395c0.002-0.127 0.005-0.272 0.010-0.431 0.005-0.162 0.007-0.343 0.012-0.551 0.002-0.208 0.007-0.448 0.010-0.722h0.017c0.022 0.103 0.049 0.225 0.076 0.367 0.029 0.14 0.056 0.284 0.086 0.438 0.029 0.152 0.059 0.303 0.088 0.448 0.027 0.144 0.054 0.274 0.078 0.389l0.321 1.395h0.871l0.311-1.378c0.047-0.208 0.091-0.419 0.135-0.627s0.083-0.404 0.118-0.585c0.034-0.181 0.064-0.328 0.086-0.445h0.015c0.007 0.279 0.012 0.524 0.017 0.732s0.010 0.389 0.015 0.546c0.002 0.157 0.007 0.296 0.012 0.421l0.049 1.402h1.001l-0.264-4.011h-1.336l-0.279 1.28c-0.025 0.11-0.047 0.225-0.071 0.34-0.024 0.117-0.047 0.242-0.076 0.377-0.027 0.135-0.056 0.289-0.091 0.455l-0.024-0c-0.037-0.171-0.071-0.325-0.103-0.458-0.029-0.135-0.061-0.257-0.086-0.372-0.029-0.115-0.054-0.23-0.081-0.343l-0.296-1.28h-1.336l-0.294 4.006z"></path>
<path fill="#fff" d="M36.192 18.144c-0.027 0.005-0.051 0.007-0.074 0.007-0.022 0.002-0.049 0.002-0.081 0.002-0.127-0.002-0.242-0.027-0.345-0.081-0.1-0.051-0.181-0.12-0.24-0.213-0.059-0.088-0.088-0.193-0.091-0.311 0.002-0.179 0.056-0.313 0.164-0.406 0.105-0.091 0.252-0.137 0.438-0.137 0.039 0 0.078 0.002 0.117 0.007 0.037 0.002 0.074 0.010 0.11 0.017v1.113zM37.21 16.411c-0.132-0.024-0.296-0.044-0.489-0.056-0.196-0.012-0.401-0.017-0.624-0.017-0.184 0-0.36 0.010-0.529 0.032-0.169 0.020-0.323 0.054-0.46 0.095-0.14 0.042-0.255 0.095-0.348 0.157-0.147 0.1-0.259 0.22-0.34 0.36s-0.12 0.308-0.122 0.504c0.002 0.191 0.047 0.35 0.13 0.485 0.083 0.132 0.198 0.24 0.338 0.321s0.291 0.139 0.46 0.174v0.015c-0.108 0.032-0.203 0.073-0.281 0.12-0.081 0.046-0.144 0.098-0.198 0.157-0.086 0.098-0.159 0.213-0.22 0.348-0.059 0.135-0.11 0.274-0.152 0.416-0.039 0.142-0.076 0.274-0.11 0.392-0.025 0.086-0.054 0.166-0.088 0.237-0.034 0.073-0.073 0.142-0.115 0.201l1.106-0c0.024-0.044 0.046-0.091 0.068-0.14 0.020-0.049 0.037-0.098 0.049-0.154 0.039-0.159 0.081-0.318 0.12-0.48 0.042-0.159 0.090-0.301 0.154-0.428 0.061-0.127 0.14-0.22 0.237-0.279 0.037-0.020 0.078-0.039 0.127-0.056 0.046-0.017 0.103-0.025 0.166-0.025l0.098 0v1.561h1.025v-3.938h-0.002z"></path>
<path fill="#fff" d="M24.38 18.146c0.027 0.005 0.051 0.007 0.076 0.007 0.022 0 0.047 0.002 0.078 0.002 0.13-0.002 0.242-0.027 0.345-0.081 0.1-0.051 0.181-0.12 0.24-0.213 0.059-0.088 0.090-0.193 0.090-0.311-0.002-0.179-0.056-0.316-0.162-0.406-0.108-0.091-0.255-0.137-0.441-0.137-0.039 0-0.078 0.002-0.115 0.007-0.037 0.002-0.073 0.010-0.11 0.017v1.114h-0.002zM23.364 16.414c0.132-0.024 0.296-0.044 0.489-0.056s0.401-0.020 0.624-0.020c0.183 0 0.36 0.012 0.529 0.034s0.323 0.054 0.462 0.095c0.14 0.042 0.252 0.093 0.345 0.157 0.147 0.1 0.262 0.22 0.343 0.36s0.122 0.308 0.122 0.504c-0.002 0.188-0.047 0.475-0.13 0.607-0.369 0.697-1.067 0.742-1.757 0.649v1.608h-1.028v-3.938z"></path>
<path fill="#fff" d="M32.308 14.891c-0.277 0-0.558-0.416-0.558-1.214 0-0.883 0.338-1.214 0.551-1.214 0.299 0 0.524 0.507 0.524 1.18 0 0.986-0.335 1.248-0.516 1.248zM32.338 11.671c-0.998 0-1.642 0.783-1.642 1.994 0 1.263 0.59 2.017 1.578 2.017 0.602 0 1.615-0.269 1.615-2.073 0-1.214-0.58-1.938-1.552-1.938z"></path>
<path fill="#fff" d="M28.412 11.671h-0.673c-0.842 0-1.681 0.678-1.681 2.102 0 1.155 0.609 1.877 1.593 1.909 0.416 0.015 0.891-0.166 0.891-0.166l-0.181-0.773c0 0-0.147 0.073-0.431 0.083-0.614 0.020-0.827-0.629-0.827-1.106 0-0.688 0.245-1.091 0.805-1.133 0.14-0.012 0.489-0.022 0.489-0.022h0.541v3.052h1.047v-3.052h0.827v-0.893h-2.401z"></path>
</svg>
