<!-- Generated by IcoMoon.io -->
<svg version="1.1" xmlns="http://www.w3.org/2000/svg" width="53" height="32" viewBox="0 0 53 32">
<path fill="#fff" d="M29.203 14.344c0-1.11 0.019-2.144 0.077-3.101l-2.929 0.555v0.268l0.287 0.038c0.211 0.019 0.345 0.096 0.421 0.211 0.077 0.134 0.134 0.325 0.172 0.613 0.038 0.555 0.077 1.819 0.058 3.81 0 1.972-0.019 3.216-0.058 3.695 1.053 0.23 1.876 0.325 2.489 0.325 1.149 0 2.048-0.325 2.699-0.996 0.651-0.651 0.996-1.57 0.996-2.699 0-0.9-0.249-1.646-0.747-2.24s-1.13-0.881-1.876-0.881c-0.498 0-1.015 0.134-1.589 0.402zM29.261 20.24c-0.038-0.613-0.077-2.45-0.077-5.456 0.172-0.057 0.402-0.096 0.689-0.096 0.459 0 0.823 0.23 1.091 0.708s0.402 1.053 0.402 1.78c0 0.9-0.153 1.627-0.46 2.24-0.306 0.593-0.689 0.9-1.168 0.9-0.153-0.038-0.306-0.057-0.479-0.077zM15.362 11.434h-7.658v0.383l0.402 0.038c0.306 0.057 0.517 0.172 0.651 0.345 0.134 0.191 0.211 0.498 0.23 0.919 0.153 2.068 0.153 4.001 0 5.782-0.038 0.421-0.115 0.728-0.23 0.919-0.134 0.191-0.345 0.306-0.651 0.345l-0.402 0.057v0.383h4.939v-0.383l-0.517-0.038c-0.306-0.038-0.517-0.172-0.651-0.345-0.134-0.191-0.211-0.498-0.23-0.919-0.057-0.766-0.096-1.646-0.096-2.623l1.034 0.019c0.555 0.019 0.938 0.44 1.13 1.283h0.383v-3.121h-0.383c-0.191 0.823-0.555 1.244-1.13 1.263l-1.034 0.019c0-1.723 0.038-2.948 0.096-3.695h1.512c1.072 0 1.8 0.689 2.221 2.068l0.46-0.134-0.077-2.565zM14.462 17.33c0 0.996 0.287 1.819 0.842 2.47s1.378 0.957 2.412 0.957c1.034 0 1.876-0.325 2.489-0.996 0.613-0.651 0.9-1.474 0.9-2.47s-0.287-1.819-0.842-2.47c-0.555-0.651-1.378-0.957-2.412-0.957s-1.876 0.325-2.489 0.996c-0.613 0.651-0.9 1.474-0.9 2.47zM18.731 15.148c0.23 0.555 0.325 1.283 0.325 2.163 0 2.029-0.421 3.025-1.244 3.025-0.421 0-0.747-0.287-0.976-0.861s-0.325-1.302-0.325-2.163c0-2.010 0.421-3.006 1.244-3.006 0.421-0.019 0.747 0.268 0.976 0.842zM34.908 19.8c0.632 0.632 1.436 0.957 2.393 0.957 0.593 0 1.11-0.115 1.57-0.364 0.459-0.23 0.823-0.517 1.072-0.861l-0.191-0.23c-0.421 0.325-0.9 0.479-1.455 0.479-0.766 0-1.359-0.249-1.761-0.766-0.421-0.517-0.613-1.168-0.574-2.010h4.097c0-0.919-0.23-1.666-0.708-2.259-0.479-0.574-1.149-0.862-2.010-0.862-1.072 0-1.895 0.345-2.489 1.015s-0.881 1.493-0.881 2.47c0 0.996 0.306 1.8 0.938 2.431v0zM36.325 14.995c0.211-0.459 0.478-0.689 0.842-0.689 0.574 0 0.862 0.728 0.862 2.202l-2.029 0.038c0.019-0.574 0.115-1.091 0.325-1.551v0zM45.208 14.229c-0.517-0.23-1.168-0.364-1.953-0.364-0.804 0-1.436 0.211-1.914 0.613s-0.727 0.9-0.727 1.493c0 0.517 0.153 0.919 0.44 1.206s0.747 0.536 1.34 0.747c0.536 0.191 0.919 0.383 1.11 0.555 0.191 0.191 0.306 0.402 0.306 0.689 0 0.268-0.096 0.517-0.306 0.708-0.191 0.211-0.459 0.306-0.804 0.306-0.842 0-1.474-0.613-1.914-1.838l-0.325 0.096 0.077 1.914c0.689 0.268 1.455 0.402 2.297 0.402 0.881 0 1.551-0.191 2.048-0.593 0.498-0.383 0.747-0.938 0.747-1.627 0-0.46-0.115-0.842-0.364-1.13s-0.651-0.536-1.225-0.766c-0.632-0.23-1.072-0.44-1.302-0.632s-0.345-0.421-0.345-0.708 0.077-0.517 0.249-0.708c0.172-0.191 0.383-0.268 0.651-0.268 0.766 0 1.321 0.555 1.666 1.646l0.325-0.096-0.077-1.646zM26.791 14.057c-0.268-0.134-0.555-0.191-0.881-0.191s-0.651 0.134-1.015 0.402c-0.364 0.268-0.632 0.632-0.842 1.13l0.019-1.532-2.91 0.574v0.268l0.287 0.019c0.364 0.038 0.574 0.326 0.613 0.842 0.115 1.187 0.115 2.45 0 3.791-0.038 0.517-0.249 0.785-0.613 0.842l-0.287 0.038v0.364h4.059v-0.364l-0.517-0.038c-0.364-0.038-0.574-0.325-0.613-0.842-0.115-1.11-0.134-2.297-0.038-3.523 0.115-0.191 0.364-0.306 0.747-0.345s0.823 0.077 1.283 0.345c0 0 0.708-1.78 0.708-1.78z"></path>
</svg>
