<!-- Generated by IcoMoon.io -->
<svg version="1.1" xmlns="http://www.w3.org/2000/svg" width="53" height="32" viewBox="0 0 53 32">
<path fill="#fff" d="M16.738 24.181v-19.904h19.904v19.904h-19.904zM25.044 20.085l0.003-7.506 3.223-0.003-0.008 7.461c0.1 0.267 0.152 0.156 0.949 0.154l3.374-0.066c0.009-0.019 0.023-0.068 0.025-0.057l0.010-8.054-3.775-0.015-0.002-3.72c-0.166-0.231-3.504-0.105-4.056-0.105-0.849 0-3.528-0.159-4.086 0.059l-0.094 0.285c-0.007 0.070 0.002 0.277 0.002 0.36l0.023 10.527c-0.003 0.341-0.039 0.499 0.079 0.726 0.391 0.163 3.009 0.062 3.814 0.064 0.021 0 0.262 0 0.265 0 0.359-0.052 0.126 0.012 0.252-0.109z"></path>
<path fill="#fff" d="M21.342 19.543l3.074 0.003 0.001-7.58 3.81-0.038 0.015-3.12-6.919 0.028z"></path>
<path fill="#fff" d="M28.826 19.365c0.596 0.192 2.38 0.098 3.098 0.083l-0-6.803c-0.645-0.048-2.571-0.109-3.098 0.085l0 6.636z"></path>
<path fill="#fff" d="M16.691 25.834v1.422h0.184v-1.268h0.66v1.268h0.184v-1.422h-1.028zM18.466 26.212c-0.283 0-0.506 0.201-0.506 0.542 0 0.323 0.213 0.525 0.49 0.525 0.247 0 0.508-0.165 0.508-0.542 0-0.312-0.198-0.525-0.492-0.525zM18.462 26.351c0.22 0 0.306 0.219 0.306 0.393 0 0.23-0.133 0.397-0.31 0.397-0.181 0-0.31-0.169-0.31-0.393 0-0.194 0.095-0.397 0.314-0.397zM19.188 26.235v1.021h0.184v-0.874h0.475v0.874h0.186v-1.021h-0.844zM20.19 26.235l0.378 0.941c0.008 0.023 0.013 0.038 0.013 0.049s-0.006 0.025-0.015 0.044c-0.042 0.095-0.105 0.167-0.156 0.207-0.055 0.046-0.116 0.076-0.162 0.091l0.046 0.156c0.047-0.009 0.137-0.040 0.228-0.12 0.127-0.11 0.217-0.289 0.35-0.639l0.279-0.728h-0.196l-0.203 0.599c-0.025 0.074-0.046 0.152-0.065 0.213h-0.004c-0.017-0.061-0.042-0.141-0.065-0.209l-0.224-0.604h-0.203zM21.367 26.235v0.412c0 0.228-0.011 0.371-0.106 0.441-0.025 0.021-0.065 0.036-0.101 0.042l0.019 0.146c0.095 0 0.152-0.023 0.203-0.063 0.133-0.087 0.16-0.279 0.16-0.565v-0.266h0.35v0.876h0.184v-1.021h-0.709zM23.133 26.244c-0.089-0.011-0.207-0.021-0.329-0.021-0.133 0-0.257 0.021-0.342 0.070-0.078 0.044-0.135 0.116-0.135 0.222 0 0.156 0.137 0.238 0.27 0.253v0.006c-0.047 0.008-0.084 0.032-0.116 0.059-0.091 0.076-0.116 0.209-0.16 0.308-0.019 0.044-0.040 0.082-0.063 0.116h0.198c0.015-0.025 0.030-0.053 0.042-0.084 0.040-0.099 0.068-0.226 0.143-0.287 0.040-0.036 0.093-0.057 0.171-0.057h0.137v0.428h0.184v-1.013zM22.95 26.702c-0.042 0-0.082 0-0.158 0-0.11 0-0.272-0.046-0.272-0.177 0-0.141 0.15-0.177 0.276-0.177 0.065 0 0.108 0.004 0.154 0.011v0.344zM23.435 27.675h0.184v-0.555h0.004c0.061 0.101 0.179 0.16 0.314 0.16 0.241 0 0.464-0.181 0.464-0.549 0-0.31-0.186-0.519-0.433-0.519-0.167 0-0.287 0.074-0.363 0.198h-0.004l-0.008-0.175h-0.167c0.004 0.097 0.008 0.203 0.008 0.333v1.106zM23.619 26.666c0-0.025 0.006-0.053 0.013-0.076 0.036-0.139 0.154-0.23 0.281-0.23 0.196 0 0.304 0.175 0.304 0.38 0 0.234-0.114 0.395-0.31 0.395-0.133 0-0.245-0.089-0.279-0.217-0.004-0.023-0.008-0.049-0.008-0.076v-0.175zM24.632 26.235v1.021h0.184v-0.462h0.485v0.462h0.184v-1.021h-0.184v0.412h-0.485v-0.412h-0.184zM26.522 27.257c-0.013-0.070-0.017-0.156-0.017-0.245v-0.382c0-0.205-0.076-0.418-0.388-0.418-0.129 0-0.251 0.036-0.335 0.091l0.042 0.122c0.072-0.047 0.171-0.076 0.266-0.076 0.209 0 0.232 0.152 0.232 0.236v0.021c-0.395-0.002-0.614 0.133-0.614 0.38 0 0.148 0.105 0.293 0.312 0.293 0.146 0 0.255-0.072 0.312-0.152h0.006l0.015 0.129h0.169zM26.326 26.913c0 0.019-0.004 0.040-0.011 0.059-0.030 0.087-0.114 0.171-0.247 0.171-0.095 0-0.175-0.057-0.175-0.177 0-0.198 0.23-0.234 0.433-0.23v0.177zM27.565 26.244c-0.089-0.011-0.207-0.021-0.329-0.021-0.133 0-0.258 0.021-0.342 0.070-0.078 0.044-0.135 0.116-0.135 0.222 0 0.156 0.137 0.238 0.27 0.253v0.006c-0.046 0.008-0.084 0.032-0.116 0.059-0.091 0.076-0.116 0.209-0.16 0.308-0.019 0.044-0.040 0.082-0.063 0.116h0.198c0.015-0.025 0.030-0.053 0.042-0.084 0.040-0.099 0.068-0.226 0.144-0.287 0.040-0.036 0.093-0.057 0.171-0.057h0.137v0.428h0.184v-1.013zM27.381 26.702c-0.042 0-0.082 0-0.158 0-0.11 0-0.272-0.046-0.272-0.177 0-0.141 0.15-0.177 0.276-0.177 0.065 0 0.108 0.004 0.154 0.011v0.344zM28.309 26.235v1.021h0.184v-0.874h0.475v0.874h0.186v-1.021h-0.844zM29.888 26.212c-0.283 0-0.506 0.201-0.506 0.542 0 0.323 0.213 0.525 0.49 0.525 0.247 0 0.508-0.165 0.508-0.542 0-0.312-0.198-0.525-0.492-0.525zM29.884 26.351c0.219 0 0.306 0.219 0.306 0.393 0 0.23-0.133 0.397-0.31 0.397-0.181 0-0.31-0.169-0.31-0.393 0-0.194 0.095-0.397 0.314-0.397zM30.679 26.235v0.412c0 0.228-0.010 0.371-0.105 0.441-0.025 0.021-0.065 0.036-0.101 0.042l0.019 0.146c0.095 0 0.152-0.023 0.203-0.063 0.133-0.087 0.16-0.279 0.16-0.565v-0.266h0.35v0.876h0.184v-1.021h-0.709zM31.688 26.235v1.021h0.213c0.11-0.179 0.222-0.376 0.319-0.534 0.059-0.103 0.103-0.186 0.169-0.317h0.006c-0.008 0.165-0.013 0.251-0.013 0.418v0.433h0.177v-1.021h-0.217l-0.319 0.528c-0.068 0.118-0.103 0.19-0.165 0.314l-0.006-0.002c0.009-0.146 0.011-0.247 0.011-0.409v-0.43h-0.175zM32.724 26.235v0.148h0.319v0.874h0.184v-0.874h0.319v-0.148h-0.821zM33.703 26.235v1.021h0.213c0.11-0.179 0.222-0.376 0.319-0.534 0.059-0.103 0.103-0.186 0.169-0.317h0.006c-0.008 0.165-0.013 0.251-0.013 0.418v0.433h0.177v-1.021h-0.217l-0.319 0.528c-0.068 0.118-0.103 0.19-0.165 0.314l-0.006-0.002c0.009-0.146 0.011-0.247 0.011-0.409v-0.43h-0.175zM34.876 26.235v1.021h0.184v-0.45h0.036c0.173 0 0.268 0.076 0.338 0.241 0.032 0.084 0.068 0.165 0.095 0.209h0.194c-0.046-0.082-0.082-0.182-0.11-0.249-0.080-0.184-0.179-0.293-0.344-0.31l0.445-0.462h-0.226l-0.384 0.443h-0.044v-0.443h-0.184zM36.642 27.257c-0.013-0.070-0.017-0.156-0.017-0.245v-0.382c0-0.205-0.076-0.418-0.388-0.418-0.129 0-0.251 0.036-0.336 0.091l0.042 0.122c0.072-0.047 0.171-0.076 0.266-0.076 0.209 0 0.232 0.152 0.232 0.236v0.021c-0.395-0.002-0.614 0.133-0.614 0.38 0 0.148 0.105 0.293 0.312 0.293 0.146 0 0.255-0.072 0.312-0.152h0.006l0.015 0.129h0.169zM36.446 26.913c0 0.019-0.004 0.040-0.011 0.059-0.030 0.087-0.114 0.171-0.247 0.171-0.095 0-0.175-0.057-0.175-0.177 0-0.198 0.23-0.234 0.433-0.23v0.177z"></path>
</svg>
