<!-- Generated by IcoMoon.io -->
<svg version="1.1" xmlns="http://www.w3.org/2000/svg" width="53" height="32" viewBox="0 0 53 32">
<path fill="#fff" d="M8.26 15.706v-2.617h0.224c0.168 0 0.448-0.028 0.448 0.756v1.091c0 0.784-0.28 0.77-0.448 0.77h-0.224zM6.539 18.841h-0.42v0.224h3.050c0.742 0 1.511-0.266 1.511-1.469 0-0.825-0.294-1.609-1.441-1.721v-0.098c0.56-0.042 1.343-0.308 1.343-1.469 0-1.315-1.022-1.455-1.357-1.455h-3.107v0.238h0.42v5.751h0zM8.26 18.841v-2.91h0.224c0.168 0 0.448-0.014 0.448 0.77v1.371c0 0.784-0.28 0.77-0.448 0.77h-0.224z"></path>
<path fill="#fff" d="M11.394 13.090h-0.434v-0.238h3.862v2.225h-0.14c-0.182-1.973-1.162-1.987-1.469-1.987h-0.112v2.729h0.084c0.56 0 0.784-0.7 0.756-1.329h0.154v2.868h-0.154c0.028-0.63-0.196-1.315-0.756-1.315h-0.084v2.799c1.175 0.028 1.581-1.064 1.679-2.169h0.154v2.393h-3.974v-0.224h0.434v-5.751h0z"></path>
<path fill="#fff" d="M17.005 13.090v5.751h-1.133c0.504-0.742 0.56-1.819 0.56-3.358v-1.889c0-0.49 0.154-0.504 0.28-0.504l0.294-0zM15.704 12.852v0.238h0.224c0.14 0 0.336 0.028 0.336 0.574v1.819c0 2.519-0.35 3.358-0.895 3.358h-0.084v1.245h0.14c0.028-0.923 0.364-1.021 1.105-1.021h1.483c0.742 0 1.078 0.098 1.105 1.021h0.14v-1.245h-0.532v-5.751h0.42v-0.238l-3.442 0z"></path>
<path fill="#fff" d="M21.007 13.524c0-0.392 0.126-0.56 0.336-0.56 0.196 0 0.336 0.168 0.336 0.56v4.898c0 0.378-0.14 0.546-0.336 0.546-0.21 0-0.336-0.168-0.336-0.546v-4.898zM19.188 15.972c0 1.539 0.728 3.232 2.155 3.232s2.141-1.693 2.141-3.232c0-1.553-0.714-3.246-2.141-3.246s-2.155 1.693-2.155 3.246z"></path>
<path fill="#fff" d="M24.239 13.566h-0.014v4.505c0 0.7 0.238 0.77 0.434 0.77h0.112v0.224h-1.147v-0.224c0.182 0.014 0.434-0.084 0.434-0.77v-4.981h-0.434v-0.238h2.155l0.546 2.533h0.028l0.56-2.533h2.155v0.238h-0.42v5.751h0.42v0.224h-2.561v-0.224h0.42v-5.247h-0.028l-1.217 5.471h-0.238l-1.203-5.499z"></path>
<path fill="#fff" d="M31.081 13.524c0-0.392 0.14-0.56 0.336-0.56 0.21 0 0.336 0.168 0.336 0.56v4.898c0 0.378-0.126 0.546-0.336 0.546-0.196 0-0.336-0.168-0.336-0.546v-4.898zM29.276 15.972c0 1.539 0.714 3.232 2.141 3.232s2.155-1.693 2.155-3.232c0-1.553-0.728-3.246-2.155-3.246s-2.141 1.693-2.141 3.246z"></path>
<path fill="#fff" d="M37.755 14.895h-0.154c-0.14-1.007-0.63-1.791-1.189-1.791-0.616 0-0.644 0.91-0.644 1.343v2.868c0 0.28 0.014 1.343 0.714 1.343 0.783 0 1.092-1.077 1.204-1.903l0.14 0.042c-0.126 1.036-0.518 2.406-1.721 2.406-1.441 0-2.141-1.763-2.141-3.246 0-1.777 0.868-3.232 2.141-3.232 0.252 0 0.63 0.084 0.98 0.406l0.462-0.546h0.14l0.070 2.309z"></path>
<path fill="#fff" d="M39.351 13.090c-0.798 0.070-1.078 1.315-1.133 1.987h-0.14v-2.225l4.268 0v2.225h-0.154c-0.056-0.671-0.336-1.917-1.12-1.987v5.751h0.504v0.224h-2.743v-0.224h0.518v-5.751h0.001z"></path>
<path fill="#fff" d="M44.78 17.19h0.028l0.644-3.68v-0.42h-0.21v-0.238h2.351v0.238h-0.42v5.751h0.42v0.224h-2.351v-0.224h0.21v-4.352h-0.028l-0.644 3.666v0.686h0.21v0.224h-2.351v-0.224h0.42v-5.751h-0.42v-0.238h2.351v0.238h-0.21z"></path>
</svg>
