<!-- Generated by IcoMoon.io -->
<svg version="1.1" xmlns="http://www.w3.org/2000/svg" width="53" height="32" viewBox="0 0 53 32">
<path fill="#fff" d="M32.752 18.698l-0.733 0.012-0.017 1.342c1.985 0.015 1.233 0.164 1.73-0.609 1.552-2.408 1.678-2.614 1.775-5.998l1.871-0.004c0.153-0.336 0.697-1.042 0.748-1.344l-3.902-0.004c-0.383 1.517-0.17 3.218-0.866 5.199-0.185 0.527-0.442 0.955-0.606 1.407z"></path>
<path fill="#fff" d="M6.032 18.681l-0.684 0.041-0.015 1.305 1.384 0.040c0.048-1.261 1.833-1.109 2.027-6.594l1.819-0.039c0.192-0.205 0.761-1.092 0.785-1.341l-3.893-0.001c-0.156 0.89-0.068 1.823-0.42 3.572-0.16 0.796-0.585 2.482-1.003 3.018z"></path>
<path fill="#fff" d="M11.161 16.993l-0.006 1.706-1.967 0.009c-0.184 0.22-0.724 1.127-0.778 1.329l5.229 0.027 0.022-1.355-0.738-0.009c-0.066-1.844-0.015-4.201-0.014-6.081-0.225 0.172-0.963 1.485-1.2 1.877-0.696 1.15-0.547 0.904-0.547 2.498z"></path>
<path fill="#fff" d="M41.172 20.053l0.782 0.021c0.2-0.447 0.638-0.962 0.808-1.39 0.178-0.45 0.024-1.498 0.083-2.072l1.215-0.012c0.151-0.287 0.723-1.046 0.691-1.338l-1.93 0.002 0.002-3.153-1.633-0.024-0.019 7.966z"></path>
<path fill="#fff" d="M37.831 16.103l-0.001 2.588-1.916 0.020c-0.2 0.342-0.683 1.063-0.728 1.349l5.141-0.005 0.007-1.344-0.749-0.009-0.002-5.948c-0.275 0.268-0.737 1.132-0.981 1.525-0.344 0.553-0.781 1.010-0.772 1.824z"></path>
<path fill="#fff" d="M21.138 20.064l1.733-0.001c0.447-1.028 4.675-7.465 4.742-7.971l-1.713 0.002c-0.664 0.91-4.727 7.791-4.762 7.97z"></path>
<path fill="#fff" d="M27.233 20.064l1.71 0.001 3.592-5.947c0.186-0.294 1.133-1.814 1.148-2.031-2.024-0.003-1.499-0.292-2.385 1.122-0.619 0.987-4.019 6.567-4.065 6.855z"></path>
<path fill="#fff" d="M24.183 20.055l1.677-0.002c0.146-0.15 4.493-7.257 4.81-7.946l-1.711-0.015c-0.33 0.37-0.893 1.439-1.202 1.944-0.563 0.921-3.528 5.737-3.574 6.019z"></path>
<path fill="#fff" d="M15.206 19.255c0.146-0.213 0.301-0.513 0.474-0.788 0.276-0.437 0.408-0.404 0.201-0.88-0.563-1.297-0.711-4.806 2.775-4.093l0.747-1.238c-1.135-0.314-1.7-0.491-2.942-0.127-3.324 0.972-2.897 6.092-1.255 7.126z"></path>
<path fill="#fff" d="M17.281 18.77c-0.191 0.216-0.683 0.998-0.733 1.292 0.512 0.005 1.029-0.010 1.543-0.006 0.757 0.005 0.786 0.064 1.378-0.223 2.811-1.365 2.142-5.452 1.348-6.368-0.242-0.279-0.006-0.079-0.269-0.215-0.118 0.273-0.772 1.246-0.81 1.424-0.1 0.466 1.065 4.261-2.456 4.097z"></path>
<path fill="#fff" d="M45.703 16.76c0.372 0.27 0.852 0.717 0.425 1.4-0.296 0.473-0.882 0.489-1.627 0.562-0.204 0.318-0.681 1.016-0.745 1.346 1.726-0.045 3.362 0.183 4.051-1.443 0.595-1.403-0.276-2.801-1.31-3.118-0.071 0.066-0.052 0.039-0.13 0.137l-0.664 1.115z"></path>
</svg>
