<!-- Generated by IcoMoon.io -->
<svg version="1.1" xmlns="http://www.w3.org/2000/svg" width="53" height="32" viewBox="0 0 53 32">
<path fill="#feffff" d="M29.2 9.181c0.15 0.042 0.824 0.508 1.018 0.631 0.356 0.225 0.658 0.426 1.007 0.647 0.255 0.162 1.919 1.208 2 1.317l-4.823 2.212c-0.106 0.077-0.52 0.272-0.651 0.285-0.062 0.091-0.087 0.087-0.188 0.129l-1.378 0.639c-0.133 0.094-0.406 0.197-0.534 0.252-0.061 0.026-0.072 0.031-0.136 0.063-0.009 0.004-0.034 0.018-0.043 0.022l-0.462 0.207c-0.006 0.003-0.015 0.008-0.022 0.011l-0.52 0.223c-0.003 0.002-0.012 0.006-0.015 0.008l-0.439 0.213c-0.008 0.004-0.016 0.007-0.024 0.011l-0.906 0.41c-0.094 0.045-0.216 0.095-0.277 0.124l-0.398 0.176c-0.208 0.043-0.035-0.009-0.153 0.081-0.008 0.006-0.037 0.025-0.046 0.030l-0.083 0.051-0.637 4.012c1.6 0.062 3.735-0.014 5.462 0.004 0.119 0.001 0.216 0.007 0.32-0.033l0.534-3.296c0.562-0.078 1.526-0.001 2.149-0.022 3.036-0.104 5.603-0.99 6.673-4.042 0.369-1.052 0.593-2.545 0.412-3.742-0.361-2.39-2.154-3.599-4.625-3.945-1.277-0.179-2.855-0.099-4.182-0.099-0.79 0-3.769 0.040-4.3-0.009l0.181 0.146c0.749 0.488 4.992 3.152 5.087 3.285z"></path>
<path fill="#d1d1d1" d="M23.005 11.392l0.106-0.051c0.009 0.178-0.017 0.115 0.052 0.143l0.048-0.234c0.024 0.256-0.062-0.052 0.177 0.232l0.419 0.217c0.238 0.077 0.087 0.005 0.182 0.191 0.317 0.001 0.035-0.066 0.391 0.218l0.203 0.13c0.073 0.034 0.049 0.013 0.125 0.081 0.073 0.066 0.032 0.061 0.106 0.094 0.067 0.030 0.139 0.019 0.22 0.019 0.019 0.238 0.073 0.115 0.219 0.219 0.136 0.097 0.019 0.152 0.321 0.152l0.012 0.166 0.225 0.004c0.126 0.536 0.548 0.067 0.611 0.535l0.232 0.005 0.003 0.164c0.418 0.004 0.114 0.207 0.537 0.206l0.025 0.202c0.037-0.009 0.518-0.084 0.474 0.018-0.036 0.084-0.055-0.023-0.095 0.083 0.028 0.039 0.023-0.007 0.039 0.098l0.116-0.012c0.132-0.013 0.545-0.208 0.651-0.285 0.033-0.269 0.185-0.928 0.156-1.144-0.012-0.098-0.007-0.115-0.019-0.203-0.064-0.034-0.046-0.032-0.072 0.030-0.036-0.062-0.033-0.099-0.066-0.165-0.028 0.038-0-0.014-0.037 0.066l-0.057 0.162c-0.016-0.455-0.065-0.148-0.316-0.424-0.101-0.111-0.12-0.097-0.24-0.166-0.52-0.3-0.148-0.245-0.558-0.251l-0.005-0.198c-0.221-0.005-0.265-0.115-0.452-0.19-0.384-0.154-0.094-0.111-0.317-0.289-0.158-0.125-0.336-0.143-0.422-0.186-0.136-0.067-0.080-0.078-0.148-0.153l-0.279-0.194c-0.043-0.034-0.051-0.038-0.101-0.067-0.070-0.041-0.116-0.062-0.188-0.116-0.078-0.058-0.085-0.074-0.17-0.133-0.001-0-0.104-0.063-0.105-0.064-0.28-0.112-0.057 0.075-0.286-0.153-0.090-0.090-0.090-0.055-0.202-0.136-0.006-0.004-0.013-0.011-0.019-0.015-0.197-0.145-0.159-0.043-0.28-0.258l-0.236-0.007-0.067-0.164c-0.307-0.015-0.339-0.19-0.604-0.102l-0.306 1.923z"></path>
<path fill="#bbbbbc" d="M23.616 7.546l-0.305 1.923c0.264-0.088 0.297 0.086 0.604 0.102l0.067 0.164 0.236 0.007c0.12 0.216 0.083 0.114 0.28 0.258 0.006 0.004 0.013 0.011 0.019 0.015 0.112 0.080 0.112 0.046 0.202 0.136 0.229 0.228 0.006 0.041 0.286 0.153 0.001 0 0.104 0.063 0.105 0.064 0.085 0.059 0.092 0.075 0.17 0.133 0.072 0.054 0.117 0.075 0.188 0.116 0.051 0.030 0.058 0.034 0.101 0.067l0.279 0.194c0.069 0.076 0.013 0.087 0.148 0.153 0.087 0.043 0.264 0.061 0.422 0.186 0.224 0.178-0.066 0.135 0.317 0.289 0.187 0.075 0.231 0.185 0.452 0.19l0.005 0.198c0.41 0.006 0.038-0.049 0.558 0.251 0.12 0.069 0.139 0.055 0.24 0.166 0.251 0.276 0.3-0.031 0.316 0.424l0.057-0.162c0.037-0.080 0.009-0.028 0.037-0.066 0.033 0.066 0.030 0.103 0.066 0.165 0.026-0.062 0.008-0.064 0.072-0.030 0.011 0.088 0.006 0.105 0.019 0.203 0.032-0.043 0.002 0.027 0.037-0.075l0.062-0.346c0.053-0.329 0.222-1.204 0.202-1.412l0.014-0.191c-0.090-0.003-0.046 0.005-0.112-0.023-0.004-0.002-0.069-0.047-0.079-0.056-0.261-0.214-0.183-0.134-0.497-0.279-0.24-0.11-0.177-0.252-0.439-0.37-0.421-0.191-0.211-0.12-0.481-0.295-0.179-0.116-0.1 0.018-0.305-0.201-0.322-0.345-0.323-0.020-0.621-0.425-0.146-0.198-0.272-0.101-0.738-0.442l-0.162-0.109c-0.328-0.262-0.163-0.114-0.458-0.318-0.029-0.020-0.052-0.028-0.084-0.051-0.059-0.042-0.049-0.045-0.071-0.064l-0.411-0.23c-0.183-0.098-0.479-0.348-0.489-0.354-0.006-0.004-0.015-0.009-0.021-0.012s-0.016-0.009-0.022-0.012c-0.044-0.024-0.028 0.029-0.045-0.022-0.003-0.010-0.016-0.006-0.023-0.011l-0.055 0.081c-0.035 0.047-0.012 0.023-0.044 0.049l-0.036-0.166-0.063 0.036z"></path>
<path fill="#a3a3a3" d="M23.616 7.546l0.063-0.036 0.036 0.166c0.032-0.026 0.009-0.003 0.044-0.049l0.055-0.081c0.007 0.005 0.019 0.001 0.023 0.011 0.017 0.051 0.001-0.002 0.045 0.022 0.006 0.003 0.016 0.008 0.022 0.012s0.015 0.009 0.021 0.012c0.010 0.006 0.305 0.256 0.489 0.354l0.411 0.23c0.022 0.020 0.012 0.022 0.071 0.064 0.032 0.023 0.055 0.031 0.084 0.051 0.295 0.203 0.13 0.055 0.458 0.318l0.162 0.109c0.465 0.342 0.592 0.244 0.738 0.442 0.298 0.404 0.299 0.079 0.621 0.425 0.205 0.22 0.126 0.085 0.305 0.201 0.27 0.175 0.060 0.104 0.481 0.295 0.261 0.119 0.198 0.26 0.439 0.37 0.315 0.144 0.236 0.064 0.497 0.279 0.011 0.009 0.075 0.054 0.079 0.056 0.066 0.028 0.022 0.020 0.112 0.023l-0.014 0.191c0.16-0.189 0.182-1.571 0.342-1.83-0.095-0.134-4.337-2.797-5.087-3.285l-0.181-0.146c-0.096 0.088-0.146 0.693-0.174 0.864-0.048 0.293-0.125 0.641-0.143 0.933z"></path>
<path fill="#eeeeef" d="M22.127 16.923l0.083-0.051c0.008-0.006 0.038-0.025 0.046-0.030 0.118-0.090-0.055-0.038 0.153-0.081l0.398-0.176c0.061-0.029 0.183-0.078 0.277-0.124l0.906-0.41c0.008-0.004 0.016-0.007 0.024-0.011l0.439-0.213c0.003-0.002 0.012-0.006 0.015-0.008l0.52-0.223c0.007-0.003 0.015-0.008 0.022-0.011l0.462-0.207c0.009-0.004 0.034-0.018 0.043-0.022 0.064-0.032 0.076-0.037 0.136-0.063 0.128-0.055 0.401-0.158 0.534-0.252-0.005-0.010-0.013-0.037-0.014-0.045l-0.004-0.043c0-0.008 0.004-0.032 0.006-0.040 0.001-0.005 0.004-0.014 0.005-0.019s0.004-0.014 0.006-0.018l0.050-0.165c-0.098-0.002-0.136-0.012-0.222-0.044-0.425-0.158-0.409 0.024-0.631-0.115-0.168-0.105-0.287-0.203-0.474-0.27-0.085-0.031-0.107-0.020-0.181-0.053-0.013-0.040 0.033-0.093 0.036-0.092l-0.204 0.023-0.048-0.122c-0.069-0.121-0.070-0.107-0.15-0.154-0.043-0.025-0.049-0.019-0.076-0.040-0.075-0.058-0.066-0.093-0.068-0.185-0.17 0-0.134 0.012-0.238-0.065-0.192-0.141-0.084-0.022-0.343-0.201-0.167-0.115-0.164-0.053-0.060-0.14-0.091 0.008-0.088 0.017-0.17 0.035 0.009-0.101 0.015-0.091 0.035-0.17-0.102 0.054-0.161 0.022-0.252-0.050-0.132-0.105 0.014-0.085-0.254-0.085 0.007-0.006 0.020-0.013 0.024-0.016l0.036-0.027c0.068-0.058 0.028 0.029 0.012-0.024-0.241-0.006-0.066-0.064-0.233-0.038l-0.644 4.046z"></path>
<path fill="#e1e1e1" d="M23.005 11.392l-0.235 1.484c0.168-0.026-0.008 0.032 0.233 0.038 0.016 0.054 0.056-0.034-0.012 0.024l-0.036 0.027c-0.004 0.003-0.016 0.010-0.024 0.016 0.268 0 0.122-0.019 0.254 0.085 0.091 0.072 0.15 0.104 0.252 0.050-0.020 0.079-0.026 0.070-0.035 0.17 0.083-0.019 0.080-0.027 0.17-0.035-0.104 0.086-0.107 0.024 0.060 0.14 0.258 0.178 0.151 0.060 0.343 0.201 0.105 0.077 0.069 0.065 0.238 0.065 0.002 0.092-0.006 0.127 0.068 0.185 0.027 0.021 0.033 0.015 0.076 0.040 0.080 0.047 0.081 0.033 0.15 0.154l0.048 0.122 0.204-0.023c-0.003-0.002-0.049 0.052-0.036 0.092 0.074 0.033 0.096 0.022 0.181 0.053 0.187 0.067 0.306 0.165 0.474 0.27 0.221 0.139 0.206-0.043 0.631 0.115 0.085 0.032 0.124 0.041 0.222 0.044l-0.050 0.165c-0.001 0.004-0.004 0.014-0.006 0.018s-0.004 0.014-0.005 0.019c-0.002 0.008-0.006 0.032-0.006 0.040l0.004 0.043c0.001 0.008 0.008 0.035 0.014 0.045l1.378-0.639c0.101-0.042 0.126-0.038 0.188-0.129l-0.116 0.012c-0.015-0.105-0.011-0.058-0.039-0.098 0.041-0.106 0.059 0.001 0.095-0.083 0.044-0.102-0.436-0.027-0.474-0.018l-0.025-0.202c-0.423 0-0.119-0.203-0.537-0.206l-0.003-0.164-0.232-0.005c-0.063-0.468-0.485 0.002-0.611-0.535l-0.225-0.004-0.012-0.166c-0.302 0-0.185-0.055-0.321-0.152-0.146-0.104-0.199 0.019-0.219-0.219-0.081 0-0.153 0.012-0.22-0.019-0.073-0.033-0.033-0.028-0.106-0.094-0.076-0.068-0.052-0.046-0.125-0.081l-0.203-0.13c-0.357-0.284-0.074-0.218-0.391-0.218-0.095-0.186 0.056-0.114-0.182-0.191l-0.419-0.217c-0.24-0.284-0.154 0.024-0.177-0.232l-0.048 0.234c-0.069-0.028-0.043 0.036-0.052-0.143l-0.106 0.051z"></path>
<path fill="#fff" d="M14.468 25.628l0.782-3.025h0.924c0.413 0 0.719 0.102 0.916 0.307 0.15 0.156 0.225 0.363 0.225 0.622 0 0.366-0.133 0.654-0.399 0.864s-0.605 0.316-1.015 0.316h-0.554l-0.237 0.916h-0.641zM15.496 24.128h0.437c0.216 0 0.389-0.048 0.518-0.145s0.194-0.228 0.194-0.396c0-0.101-0.032-0.184-0.096-0.251-0.086-0.089-0.219-0.134-0.399-0.134h-0.416l-0.237 0.925zM17.294 25.628l0.782-3.025h2.177l-0.154 0.592h-1.54l-0.158 0.618h1.353l-0.154 0.583h-1.353l-0.166 0.64h1.565l-0.154 0.592h-2.197zM19.65 26.259l0.308-1.223h0.254c0.178-0.228 0.334-0.485 0.468-0.774s0.268-0.684 0.402-1.188l0.121-0.471h2.127l-0.628 2.433h0.35l-0.395 1.223h-0.541l0.162-0.631h-1.848l-0.212 0.631h-0.566zM20.907 25.035h1.153l0.479-1.845h-0.866l-0.108 0.389c-0.175 0.622-0.394 1.108-0.658 1.457zM22.975 25.628l2.035-3.047h0.616l0.462 3.047h-0.658l-0.092-0.678h-1.232l-0.441 0.678h-0.691zM24.49 24.361h0.774l-0.133-0.998-0.641 0.998zM26.446 25.628l0.782-3.025h0.641l-0.345 1.34 1.44-1.34h0.866l-1.419 1.266 0.687 1.759h-0.703l-0.491-1.361-0.603 0.536-0.212 0.826h-0.641zM31.444 26.259l0.162-0.631h-2.135l0.782-3.025h0.637l-0.633 2.433h1.132l0.628-2.433h0.641l-0.633 2.433h0.35l-0.391 1.223h-0.541zM32.593 25.628l0.782-3.025h0.628l-0.508 1.98 1.765-1.98h0.599l-0.778 3.025h-0.633l0.504-1.979-1.765 1.979h-0.595zM35.59 25.628l1.053-1.115c-0.327-0.138-0.491-0.393-0.491-0.765 0-0.352 0.129-0.63 0.387-0.836s0.599-0.309 1.024-0.309h1.303l-0.778 3.025h-0.641l0.258-0.998h-0.437l-0.882 0.998h-0.795zM37.3 24.098h0.537l0.233-0.912h-0.524c-0.23 0-0.409 0.048-0.537 0.143s-0.191 0.226-0.191 0.393c0 0.121 0.044 0.214 0.133 0.279s0.205 0.097 0.35 0.097z"></path>
</svg>
