<?xml version="1.0" encoding="UTF-8"?>
<!DOCTYPE svg PUBLIC "-//W3C//DTD SVG 1.1//EN" "http://www.w3.org/Graphics/SVG/1.1/DTD/svg11.dtd">
<!-- Creator: CorelDRAW 2017 -->
<svg xmlns="http://www.w3.org/2000/svg" xml:space="preserve" width="8mm" height="8mm" version="1.1" style="shape-rendering:geometricPrecision; text-rendering:geometricPrecision; image-rendering:optimizeQuality; fill-rule:evenodd; clip-rule:evenodd"
viewBox="0 0 800 800"
 xmlns:xlink="http://www.w3.org/1999/xlink">
 <defs>
  <style type="text/css">
   <![CDATA[
    .str0 {stroke:#3470BF;stroke-width:30;stroke-miterlimit:22.9256}
    .fil0 {fill:none}
    .fil1 {fill:#3470BF;fill-opacity:0.976471}
   ]]>
  </style>
 </defs>
 <g id="Слой_x0020_1">
  <metadata id="CorelCorpID_0Corel-Layer"/>
  <path class="fil0 str0" d="M400 16.36c211.88,0 383.64,171.76 383.64,383.64 0,211.88 -171.76,383.64 -383.64,383.64 -211.88,0 -383.64,-171.76 -383.64,-383.64 0,-211.88 171.76,-383.64 383.64,-383.64z"/>
  <g id="_2673131512160">
   <g>
    <path class="fil1" d="M650 225.2c0,116.53 0,233.07 0,349.6 -5.79,23.86 -20.76,38.34 -44.92,43.46 -136.72,0.65 -273.44,0.65 -410.16,0 -24.16,-5.12 -39.13,-19.6 -44.92,-43.46 0,-116.86 0,-233.72 0,-350.58 6.12,-22.88 20.77,-37.04 43.95,-42.48 137.37,-0.65 274.73,-0.65 412.1,0 23.62,5.55 38.27,20.03 43.95,43.46zm-446.29 -14.65c131.32,-0.49 262.51,0 393.56,1.46 -61.2,61.2 -122.4,122.4 -183.6,183.6 -9.11,5.85 -18.23,5.85 -27.34,0 -61.2,-61.2 -122.4,-122.4 -183.6,-183.6 0.55,-0.37 0.87,-0.86 0.98,-1.46zm-23.44 23.43c60.68,60.19 121.23,120.58 181.64,181.16 25.39,20.18 50.79,20.18 76.18,0 60.38,-60.39 120.76,-120.77 181.15,-181.16 1.62,109.89 1.95,219.92 0.98,330.08 -0.93,12.32 -7.28,20.29 -19.05,23.93 -134.11,0.65 -268.23,0.65 -402.34,0 -11.74,-3.61 -18.09,-11.59 -19.04,-23.93 -0.82,-110.09 -0.65,-220.12 0.48,-330.08z"/>
   </g>
  </g>
 </g>
</svg>
