<?xml version="1.0" encoding="UTF-8"?>
<!DOCTYPE svg PUBLIC "-//W3C//DTD SVG 1.1//EN" "http://www.w3.org/Graphics/SVG/1.1/DTD/svg11.dtd">
<!-- Creator: CorelDRAW 2017 -->
<svg xmlns="http://www.w3.org/2000/svg" xml:space="preserve" width="8mm" height="8mm" version="1.1" style="shape-rendering:geometricPrecision; text-rendering:geometricPrecision; image-rendering:optimizeQuality; fill-rule:evenodd; clip-rule:evenodd"
viewBox="0 0 800 800"
 xmlns:xlink="http://www.w3.org/1999/xlink">
 <defs>
  <style type="text/css">
   <![CDATA[
    .str0 {stroke:#3470BF;stroke-width:30;stroke-miterlimit:22.9256}
    .fil0 {fill:none}
    .fil1 {fill:#3470BF;fill-opacity:0.964706}
   ]]>
  </style>
 </defs>
 <g id="Слой_x0020_1">
  <metadata id="CorelCorpID_0Corel-Layer"/>
  <g id="_2673131803184">
   <path class="fil0 str0" d="M400 16.36c211.88,0 383.64,171.76 383.64,383.64 0,211.88 -171.76,383.64 -383.64,383.64 -211.88,0 -383.64,-171.76 -383.64,-383.64 0,-211.88 171.76,-383.64 383.64,-383.64z"/>
   <g>
    <g>
     <path class="fil1" d="M600 214.02c0,6.84 0,13.67 0,20.51 -23.76,115.39 -47.36,230.95 -70.8,346.68 -11.17,30.07 -31.19,38.05 -60.06,23.92 -28.13,-22.11 -56.13,-44.41 -83.98,-66.89 -18.38,16.58 -36.61,33.35 -54.69,50.29 -20.82,16.96 -40.83,16.15 -60.06,-2.44 -2.67,-3.65 -4.95,-7.56 -6.84,-11.72 -16.34,-46.6 -32.78,-93.14 -49.31,-139.65 -31.67,-8.98 -63.25,-18.26 -94.73,-27.83 -8.99,-3.95 -15.5,-10.3 -19.53,-19.04 0,-4.23 0,-8.47 0,-12.7 4.4,-10.06 11.89,-17.06 22.46,-20.99 143.48,-54.88 287.03,-109.57 430.67,-164.06 23.21,-6.14 38.84,1.84 46.87,23.92zm-34.18 3.91c1.19,0.51 2.33,1.16 3.42,1.95 0.65,3.58 0.65,7.16 0,10.74 -22.79,112.63 -45.57,225.26 -68.36,337.89 -1.79,14.01 -8.14,16.77 -19.04,8.3 -46.88,-37.76 -93.75,-75.52 -140.63,-113.28 49.94,-53.52 100.23,-106.74 150.88,-159.67 7.27,-8.47 7.1,-16.77 -0.49,-24.9 -5.39,-2.77 -10.92,-3.09 -16.6,-0.97 -82.68,42.31 -165.36,84.63 -248.05,126.95 -1.95,0.65 -3.9,0.65 -5.86,0 -27.44,-7.68 -54.78,-15.66 -82.03,-23.93 142.14,-54.97 284.39,-109.33 426.76,-163.08zm-157.23 128.9c-34.17,36.29 -68.19,72.75 -102.05,109.38 -7.94,28.18 -15.43,56.5 -22.46,84.96 -13.05,-36.88 -25.91,-73.82 -38.57,-110.84 54.08,-28.34 108.44,-56.18 163.08,-83.5zm-81.05 145.51c11.62,8.03 22.68,16.82 33.2,26.37 -16.61,15.8 -33.38,31.43 -50.29,46.87 5.52,-24.37 11.22,-48.79 17.09,-73.24z"/>
    </g>
   </g>
  </g>
 </g>
</svg>
