<?xml version="1.0" encoding="UTF-8"?>
<!DOCTYPE svg PUBLIC "-//W3C//DTD SVG 1.1//EN" "http://www.w3.org/Graphics/SVG/1.1/DTD/svg11.dtd">
<!-- Creator: CorelDRAW 2017 -->
<svg xmlns="http://www.w3.org/2000/svg" xml:space="preserve" width="8mm" height="8mm" version="1.1" style="shape-rendering:geometricPrecision; text-rendering:geometricPrecision; image-rendering:optimizeQuality; fill-rule:evenodd; clip-rule:evenodd"
viewBox="0 0 800 800"
 xmlns:xlink="http://www.w3.org/1999/xlink">
 <defs>
  <style type="text/css">
   <![CDATA[
    .str0 {stroke:#3470BF;stroke-width:30;stroke-miterlimit:22.9256}
    .fil0 {fill:none}
    .fil2 {fill:#3470BF;fill-opacity:0.960784}
    .fil1 {fill:#3470BF;fill-opacity:0.984314}
   ]]>
  </style>
 </defs>
 <g id="Слой_x0020_1">
  <metadata id="CorelCorpID_0Corel-Layer"/>
  <path class="fil0 str0" d="M400 16.36c211.88,0 383.64,171.76 383.64,383.64 0,211.88 -171.76,383.64 -383.64,383.64 -211.88,0 -383.64,-171.76 -383.64,-383.64 0,-211.88 171.76,-383.64 383.64,-383.64z"/>
  <g id="_2673131551232">
   <path class="fil1" d="M650 240.82c0,106.12 0,212.24 0,318.36 -5.88,24.27 -21.18,38.75 -45.9,43.46 -136.07,0.65 -272.13,0.65 -408.2,0 -24.72,-4.71 -40.02,-19.19 -45.9,-43.46 0,-106.45 0,-212.89 0,-319.34 6.12,-22.88 20.77,-37.04 43.95,-42.48 137.37,-0.65 274.73,-0.65 412.1,0 23.62,5.55 38.27,20.04 43.95,43.46zm-446.29 -14.65c130.86,-0.16 261.72,0 392.58,0.49 14.48,1.46 22.46,9.44 23.93,23.93 0.65,99.28 0.65,198.56 0,297.85 -0.89,12.28 -7.24,20.25 -19.05,23.92 -134.11,0.65 -268.23,0.65 -402.34,0 -11.81,-3.67 -18.16,-11.64 -19.04,-23.92 -0.66,-99.29 -0.66,-198.57 0,-297.85 1.63,-14.5 9.61,-22.64 23.92,-24.42z"/>
   <g>
    <path class="fil2" d="M345.58 304.59c8.81,-0.48 17.27,0.98 25.39,4.39 43.27,21.31 86.24,43.12 128.9,65.43 15.51,13.35 17.63,28.49 6.35,45.41 -3.47,3.45 -7.22,6.54 -11.23,9.28 -41.67,20.83 -83.33,41.67 -125,62.5 -13.85,6.04 -27.19,5.07 -40.04,-2.93 -8.47,-7.33 -13.19,-16.61 -14.16,-27.83 -0.65,-40.37 -0.65,-80.73 0,-121.1 2,-18.74 11.93,-30.46 29.79,-35.15zm3.9 30.27c-2.15,1.72 -3.29,4 -3.41,6.84 -0.66,39.06 -0.66,78.12 0,117.19 0.37,3.71 2.33,5.99 5.85,6.83 43.92,-20.9 87.38,-42.71 130.38,-65.43 -1.08,-1.36 -2.39,-2.5 -3.91,-3.42 -40.36,-20.18 -80.73,-40.36 -121.09,-60.54 -2.51,-1.06 -5.11,-1.55 -7.82,-1.47z"/>
   </g>
  </g>
 </g>
</svg>
